<?xml version="1.0" encoding="UTF-8" standalone="no"?>
<!DOCTYPE svg PUBLIC "-//W3C//DTD SVG 1.1//EN"
 "http://www.w3.org/Graphics/SVG/1.1/DTD/svg11.dtd">
<!-- Generated by graphviz version 2.40.1 (20161225.0304)
 -->
<!-- Title: Salesforce+ ERD Pages: 1 -->
<svg width="970pt" height="751pt"
 viewBox="0.00 0.00 969.99 750.80" xmlns="http://www.w3.org/2000/svg" xmlns:xlink="http://www.w3.org/1999/xlink">
<g id="graph0" class="graph" transform="scale(1 1) rotate(0) translate(4 746.8)">
<title>Salesforce+ ERD</title>
<polygon fill="#efeffd" stroke="transparent" points="-4,4 -4,-746.8 965.9884,-746.8 965.9884,4 -4,4"/>
<text text-anchor="middle" x="913.4952" y="-6.7" font-family="Courier,monospace" font-size="9.00" fill="#000000">Salesforce ERD </text>
<!-- LightningUriEvent -->
<g id="node1" class="node">
<title>LightningUriEvent</title>
<g id="a_node1"><a xlink:href="#" xlink:title=" LightningUriEvent ">
<polygon fill="#ffeeff" stroke="transparent" points="104.9884,-18.8 104.9884,-742.8 961.9884,-742.8 961.9884,-18.8 104.9884,-18.8"/>
<polygon fill="#add8e6" stroke="transparent" points="106.4884,-722.8 106.4884,-741.8 961.4884,-741.8 961.4884,-722.8 106.4884,-722.8"/>
<polygon fill="none" stroke="#99ccff" points="106.4884,-722.8 106.4884,-741.8 961.4884,-741.8 961.4884,-722.8 106.4884,-722.8"/>
<text text-anchor="start" x="477.8978" y="-729.9" font-family="Courier,monospace" font-weight="bold" font-size="11.00" fill="#000000">LightningUriEvent</text>
<polygon fill="#99ccff" stroke="transparent" points="106.4884,-703.8 106.4884,-722.8 870.4884,-722.8 870.4884,-703.8 106.4884,-703.8"/>
<polygon fill="none" stroke="#99ccff" points="106.4884,-703.8 106.4884,-722.8 870.4884,-722.8 870.4884,-703.8 106.4884,-703.8"/>
<text text-anchor="start" x="109.4884" y="-710.9" font-family="Courier,monospace" font-size="11.00" fill="#000000"> &#160;&#160;&#160;&#160;&#160;&#160;&#160;&#160;&#160;&#160;&#160;&#160;&#160;&#160;&#160;&#160;&#160;&#160;&#160;&#160;&#160;&#160;&#160;&#160;&#160;&#160;&#160;&#160;&#160;&#160;&#160;&#160;&#160;&#160;&#160;&#160;&#160;&#160;&#160;&#160;&#160;&#160;</text>
<text text-anchor="start" x="393.2411" y="-710.9" font-family="Courier,monospace" font-weight="bold" font-size="11.00" fill="#000000">Id</text>
<text text-anchor="start" x="406.4389" y="-710.9" font-family="Courier,monospace" font-size="11.00" fill="#000000"> &#160;&#160;&#160;&#160;&#160;&#160;&#160;&#160;&#160;&#160;&#160;&#160;&#160;&#160;&#160;&#160;&#160;&#160;&#160;&#160;&#160;&#160;&#160;&#160;&#160;&#160;&#160;&#160;&#160;&#160;&#160;&#160;&#160;&#160;&#160;&#160;&#160;&#160;&#160;</text>
<polygon fill="none" stroke="#99ccff" points="870.4884,-703.8 870.4884,-722.8 961.4884,-722.8 961.4884,-703.8 870.4884,-703.8"/>
<text text-anchor="start" x="896.1917" y="-709.9" font-family="Courier,monospace" font-size="11.00" fill="#000000">id(18)</text>
<polygon fill="none" stroke="#99ccff" points="106.4884,-684.8 106.4884,-703.8 870.4884,-703.8 870.4884,-684.8 106.4884,-684.8"/>
<text text-anchor="start" x="109.4884" y="-690.9" font-family="Courier,monospace" font-size="11.00" fill="#000000"> &#160;&#160;&#160;&#160;&#160;&#160;&#160;&#160;&#160;&#160;&#160;&#160;&#160;&#160;&#160;&#160;&#160;&#160;&#160;&#160;&#160;&#160;&#160;&#160;&#160;&#160;&#160;&#160;&#160;&#160;&#160;&#160;&#160;&#160;&#160;&#160;&#160;&#160;&#160;&#160;EventIdentifier &#160;&#160;&#160;&#160;&#160;&#160;&#160;&#160;&#160;&#160;&#160;&#160;&#160;&#160;&#160;&#160;&#160;&#160;&#160;&#160;&#160;&#160;&#160;&#160;&#160;&#160;&#160;&#160;&#160;&#160;&#160;&#160;&#160;&#160;&#160;&#160;&#160;&#160;</text>
<polygon fill="none" stroke="#99ccff" points="870.4884,-684.8 870.4884,-703.8 961.4884,-703.8 961.4884,-684.8 870.4884,-684.8"/>
<text text-anchor="start" x="882.9939" y="-690.9" font-family="Courier,monospace" font-size="11.00" fill="#000000">string(80)</text>
<polygon fill="none" stroke="#99ccff" points="106.4884,-665.8 106.4884,-684.8 870.4884,-684.8 870.4884,-665.8 106.4884,-665.8"/>
<text text-anchor="start" x="109.4884" y="-671.9" font-family="Courier,monospace" font-size="11.00" fill="#000000"> &#160;&#160;&#160;&#160;&#160;&#160;&#160;&#160;&#160;&#160;&#160;&#160;&#160;&#160;&#160;&#160;&#160;&#160;&#160;&#160;&#160;&#160;&#160;&#160;&#160;&#160;&#160;&#160;&#160;&#160;&#160;&#160;&#160;&#160;&#160;&#160;&#160;&#160;&#160;&#160;UserId &#160;&#160;&#160;&#160;&#160;&#160;&#160;&#160;&#160;&#160;&#160;&#160;&#160;&#160;&#160;&#160;&#160;&#160;&#160;&#160;&#160;&#160;&#160;&#160;&#160;&#160;&#160;&#160;&#160;&#160;&#160;&#160;&#160;&#160;&#160;&#160;&#160;&#160;</text>
<polygon fill="none" stroke="#99ccff" points="870.4884,-665.8 870.4884,-684.8 961.4884,-684.8 961.4884,-665.8 870.4884,-665.8"/>
<text text-anchor="start" x="873.0956" y="-671.9" font-family="Courier,monospace" font-size="11.00" fill="#000000">reference(18)</text>
<polygon fill="none" stroke="#99ccff" points="106.4884,-646.8 106.4884,-665.8 870.4884,-665.8 870.4884,-646.8 106.4884,-646.8"/>
<text text-anchor="start" x="109.4884" y="-652.9" font-family="Courier,monospace" font-size="11.00" fill="#000000"> &#160;&#160;&#160;&#160;&#160;&#160;&#160;&#160;&#160;&#160;&#160;&#160;&#160;&#160;&#160;&#160;&#160;&#160;&#160;&#160;&#160;&#160;&#160;&#160;&#160;&#160;&#160;&#160;&#160;&#160;&#160;&#160;&#160;&#160;&#160;&#160;&#160;&#160;&#160;&#160;Username &#160;&#160;&#160;&#160;&#160;&#160;&#160;&#160;&#160;&#160;&#160;&#160;&#160;&#160;&#160;&#160;&#160;&#160;&#160;&#160;&#160;&#160;&#160;&#160;&#160;&#160;&#160;&#160;&#160;&#160;&#160;&#160;&#160;&#160;&#160;&#160;&#160;&#160;</text>
<polygon fill="none" stroke="#99ccff" points="870.4884,-646.8 870.4884,-665.8 961.4884,-665.8 961.4884,-646.8 870.4884,-646.8"/>
<text text-anchor="start" x="879.6945" y="-652.9" font-family="Courier,monospace" font-size="11.00" fill="#000000">string(255)</text>
<polygon fill="none" stroke="#99ccff" points="106.4884,-627.8 106.4884,-646.8 870.4884,-646.8 870.4884,-627.8 106.4884,-627.8"/>
<text text-anchor="start" x="109.4884" y="-633.9" font-family="Courier,monospace" font-size="11.00" fill="#000000"> &#160;&#160;&#160;&#160;&#160;&#160;&#160;&#160;&#160;&#160;&#160;&#160;&#160;&#160;&#160;&#160;&#160;&#160;&#160;&#160;&#160;&#160;&#160;&#160;&#160;&#160;&#160;&#160;&#160;&#160;&#160;&#160;&#160;&#160;&#160;&#160;&#160;&#160;&#160;&#160;EventDate &#160;&#160;&#160;&#160;&#160;&#160;&#160;&#160;&#160;&#160;&#160;&#160;&#160;&#160;&#160;&#160;&#160;&#160;&#160;&#160;&#160;&#160;&#160;&#160;&#160;&#160;&#160;&#160;&#160;&#160;&#160;&#160;&#160;&#160;&#160;&#160;&#160;&#160;</text>
<polygon fill="none" stroke="#99ccff" points="870.4884,-627.8 870.4884,-646.8 961.4884,-646.8 961.4884,-627.8 870.4884,-627.8"/>
<text text-anchor="start" x="889.5928" y="-633.9" font-family="Courier,monospace" font-size="11.00" fill="#000000">datetime</text>
<polygon fill="none" stroke="#99ccff" points="106.4884,-608.8 106.4884,-627.8 870.4884,-627.8 870.4884,-608.8 106.4884,-608.8"/>
<text text-anchor="start" x="109.4884" y="-614.9" font-family="Courier,monospace" font-size="11.00" fill="#000000"> &#160;&#160;&#160;&#160;&#160;&#160;&#160;&#160;&#160;&#160;&#160;&#160;&#160;&#160;&#160;&#160;&#160;&#160;&#160;&#160;&#160;&#160;&#160;&#160;&#160;&#160;&#160;&#160;&#160;&#160;&#160;&#160;&#160;&#160;&#160;&#160;&#160;&#160;&#160;&#160;RelatedEventIdentifier &#160;&#160;&#160;&#160;&#160;&#160;&#160;&#160;&#160;&#160;&#160;&#160;&#160;&#160;&#160;&#160;&#160;&#160;&#160;&#160;&#160;&#160;&#160;&#160;&#160;&#160;&#160;&#160;&#160;&#160;&#160;&#160;&#160;&#160;&#160;&#160;&#160;&#160;</text>
<polygon fill="none" stroke="#99ccff" points="870.4884,-608.8 870.4884,-627.8 961.4884,-627.8 961.4884,-608.8 870.4884,-608.8"/>
<text text-anchor="start" x="882.9939" y="-614.9" font-family="Courier,monospace" font-size="11.00" fill="#000000">string(80)</text>
<polygon fill="none" stroke="#99ccff" points="106.4884,-589.8 106.4884,-608.8 870.4884,-608.8 870.4884,-589.8 106.4884,-589.8"/>
<text text-anchor="start" x="109.4884" y="-595.9" font-family="Courier,monospace" font-size="11.00" fill="#000000"> &#160;&#160;&#160;&#160;&#160;&#160;&#160;&#160;&#160;&#160;&#160;&#160;&#160;&#160;&#160;&#160;&#160;&#160;&#160;&#160;&#160;&#160;&#160;&#160;&#160;&#160;&#160;&#160;&#160;&#160;&#160;&#160;&#160;&#160;&#160;&#160;&#160;&#160;&#160;&#160;SessionKey &#160;&#160;&#160;&#160;&#160;&#160;&#160;&#160;&#160;&#160;&#160;&#160;&#160;&#160;&#160;&#160;&#160;&#160;&#160;&#160;&#160;&#160;&#160;&#160;&#160;&#160;&#160;&#160;&#160;&#160;&#160;&#160;&#160;&#160;&#160;&#160;&#160;&#160;</text>
<polygon fill="none" stroke="#99ccff" points="870.4884,-589.8 870.4884,-608.8 961.4884,-608.8 961.4884,-589.8 870.4884,-589.8"/>
<text text-anchor="start" x="882.9939" y="-595.9" font-family="Courier,monospace" font-size="11.00" fill="#000000">string(24)</text>
<polygon fill="none" stroke="#99ccff" points="106.4884,-570.8 106.4884,-589.8 870.4884,-589.8 870.4884,-570.8 106.4884,-570.8"/>
<text text-anchor="start" x="109.4884" y="-576.9" font-family="Courier,monospace" font-size="11.00" fill="#000000"> &#160;&#160;&#160;&#160;&#160;&#160;&#160;&#160;&#160;&#160;&#160;&#160;&#160;&#160;&#160;&#160;&#160;&#160;&#160;&#160;&#160;&#160;&#160;&#160;&#160;&#160;&#160;&#160;&#160;&#160;&#160;&#160;&#160;&#160;&#160;&#160;&#160;&#160;&#160;&#160;LoginKey &#160;&#160;&#160;&#160;&#160;&#160;&#160;&#160;&#160;&#160;&#160;&#160;&#160;&#160;&#160;&#160;&#160;&#160;&#160;&#160;&#160;&#160;&#160;&#160;&#160;&#160;&#160;&#160;&#160;&#160;&#160;&#160;&#160;&#160;&#160;&#160;&#160;&#160;</text>
<polygon fill="none" stroke="#99ccff" points="870.4884,-570.8 870.4884,-589.8 961.4884,-589.8 961.4884,-570.8 870.4884,-570.8"/>
<text text-anchor="start" x="882.9939" y="-576.9" font-family="Courier,monospace" font-size="11.00" fill="#000000">string(24)</text>
<polygon fill="none" stroke="#99ccff" points="106.4884,-551.8 106.4884,-570.8 870.4884,-570.8 870.4884,-551.8 106.4884,-551.8"/>
<text text-anchor="start" x="109.4884" y="-557.9" font-family="Courier,monospace" font-size="11.00" fill="#000000"> &#160;&#160;&#160;&#160;&#160;&#160;&#160;&#160;&#160;&#160;&#160;&#160;&#160;&#160;&#160;&#160;&#160;&#160;&#160;&#160;&#160;&#160;&#160;&#160;&#160;&#160;&#160;&#160;&#160;&#160;&#160;&#160;&#160;&#160;&#160;&#160;&#160;&#160;&#160;&#160;SessionLevel &#160;&#160;&#160;&#160;&#160;&#160;&#160;&#160;&#160;&#160;&#160;&#160;&#160;&#160;&#160;&#160;&#160;&#160;&#160;&#160;&#160;&#160;&#160;&#160;&#160;&#160;&#160;&#160;&#160;&#160;&#160;&#160;&#160;&#160;&#160;&#160;&#160;&#160;</text>
<polygon fill="none" stroke="#99ccff" points="870.4884,-551.8 870.4884,-570.8 961.4884,-570.8 961.4884,-551.8 870.4884,-551.8"/>
<text text-anchor="start" x="873.0956" y="-557.9" font-family="Courier,monospace" font-size="11.00" fill="#000000">picklist(255)</text>
<polygon fill="none" stroke="#99ccff" points="106.4884,-532.8 106.4884,-551.8 870.4884,-551.8 870.4884,-532.8 106.4884,-532.8"/>
<text text-anchor="start" x="109.4884" y="-538.9" font-family="Courier,monospace" font-size="11.00" fill="#000000"> &#160;&#160;&#160;&#160;&#160;&#160;&#160;&#160;&#160;&#160;&#160;&#160;&#160;&#160;&#160;&#160;&#160;&#160;&#160;&#160;&#160;&#160;&#160;&#160;&#160;&#160;&#160;&#160;&#160;&#160;&#160;&#160;&#160;&#160;&#160;&#160;&#160;&#160;&#160;&#160;SourceIp &#160;&#160;&#160;&#160;&#160;&#160;&#160;&#160;&#160;&#160;&#160;&#160;&#160;&#160;&#160;&#160;&#160;&#160;&#160;&#160;&#160;&#160;&#160;&#160;&#160;&#160;&#160;&#160;&#160;&#160;&#160;&#160;&#160;&#160;&#160;&#160;&#160;&#160;</text>
<polygon fill="none" stroke="#99ccff" points="870.4884,-532.8 870.4884,-551.8 961.4884,-551.8 961.4884,-532.8 870.4884,-532.8"/>
<text text-anchor="start" x="879.6945" y="-538.9" font-family="Courier,monospace" font-size="11.00" fill="#000000">string(255)</text>
<polygon fill="none" stroke="#99ccff" points="106.4884,-513.8 106.4884,-532.8 870.4884,-532.8 870.4884,-513.8 106.4884,-513.8"/>
<text text-anchor="start" x="109.4884" y="-519.9" font-family="Courier,monospace" font-size="11.00" fill="#000000"> &#160;&#160;&#160;&#160;&#160;&#160;&#160;&#160;&#160;&#160;&#160;&#160;&#160;&#160;&#160;&#160;&#160;&#160;&#160;&#160;&#160;&#160;&#160;&#160;&#160;&#160;&#160;&#160;&#160;&#160;&#160;&#160;&#160;&#160;&#160;&#160;&#160;&#160;&#160;&#160;Operation &#160;&#160;&#160;&#160;&#160;&#160;&#160;&#160;&#160;&#160;&#160;&#160;&#160;&#160;&#160;&#160;&#160;&#160;&#160;&#160;&#160;&#160;&#160;&#160;&#160;&#160;&#160;&#160;&#160;&#160;&#160;&#160;&#160;&#160;&#160;&#160;&#160;&#160;</text>
<polygon fill="none" stroke="#99ccff" points="870.4884,-513.8 870.4884,-532.8 961.4884,-532.8 961.4884,-513.8 870.4884,-513.8"/>
<text text-anchor="start" x="873.0956" y="-519.9" font-family="Courier,monospace" font-size="11.00" fill="#000000">picklist(255)</text>
<polygon fill="none" stroke="#99ccff" points="106.4884,-494.8 106.4884,-513.8 870.4884,-513.8 870.4884,-494.8 106.4884,-494.8"/>
<text text-anchor="start" x="109.4884" y="-500.9" font-family="Courier,monospace" font-size="11.00" fill="#000000"> &#160;&#160;&#160;&#160;&#160;&#160;&#160;&#160;&#160;&#160;&#160;&#160;&#160;&#160;&#160;&#160;&#160;&#160;&#160;&#160;&#160;&#160;&#160;&#160;&#160;&#160;&#160;&#160;&#160;&#160;&#160;&#160;&#160;&#160;&#160;&#160;&#160;&#160;&#160;&#160;QueriedEntities &#160;&#160;&#160;&#160;&#160;&#160;&#160;&#160;&#160;&#160;&#160;&#160;&#160;&#160;&#160;&#160;&#160;&#160;&#160;&#160;&#160;&#160;&#160;&#160;&#160;&#160;&#160;&#160;&#160;&#160;&#160;&#160;&#160;&#160;&#160;&#160;&#160;&#160;</text>
<polygon fill="none" stroke="#99ccff" points="870.4884,-494.8 870.4884,-513.8 961.4884,-513.8 961.4884,-494.8 870.4884,-494.8"/>
<text text-anchor="start" x="876.395" y="-500.9" font-family="Courier,monospace" font-size="11.00" fill="#000000">string(1000)</text>
<polygon fill="none" stroke="#99ccff" points="106.4884,-475.8 106.4884,-494.8 870.4884,-494.8 870.4884,-475.8 106.4884,-475.8"/>
<text text-anchor="start" x="109.4884" y="-481.9" font-family="Courier,monospace" font-size="11.00" fill="#000000"> &#160;&#160;&#160;&#160;&#160;&#160;&#160;&#160;&#160;&#160;&#160;&#160;&#160;&#160;&#160;&#160;&#160;&#160;&#160;&#160;&#160;&#160;&#160;&#160;&#160;&#160;&#160;&#160;&#160;&#160;&#160;&#160;&#160;&#160;&#160;&#160;&#160;&#160;&#160;&#160;AppName &#160;&#160;&#160;&#160;&#160;&#160;&#160;&#160;&#160;&#160;&#160;&#160;&#160;&#160;&#160;&#160;&#160;&#160;&#160;&#160;&#160;&#160;&#160;&#160;&#160;&#160;&#160;&#160;&#160;&#160;&#160;&#160;&#160;&#160;&#160;&#160;&#160;&#160;</text>
<polygon fill="none" stroke="#99ccff" points="870.4884,-475.8 870.4884,-494.8 961.4884,-494.8 961.4884,-475.8 870.4884,-475.8"/>
<text text-anchor="start" x="879.6945" y="-481.9" font-family="Courier,monospace" font-size="11.00" fill="#000000">string(255)</text>
<polygon fill="none" stroke="#99ccff" points="106.4884,-456.8 106.4884,-475.8 870.4884,-475.8 870.4884,-456.8 106.4884,-456.8"/>
<text text-anchor="start" x="109.4884" y="-462.9" font-family="Courier,monospace" font-size="11.00" fill="#000000"> &#160;&#160;&#160;&#160;&#160;&#160;&#160;&#160;&#160;&#160;&#160;&#160;&#160;&#160;&#160;&#160;&#160;&#160;&#160;&#160;&#160;&#160;&#160;&#160;&#160;&#160;&#160;&#160;&#160;&#160;&#160;&#160;&#160;&#160;&#160;&#160;&#160;&#160;&#160;&#160;ConnectionType &#160;&#160;&#160;&#160;&#160;&#160;&#160;&#160;&#160;&#160;&#160;&#160;&#160;&#160;&#160;&#160;&#160;&#160;&#160;&#160;&#160;&#160;&#160;&#160;&#160;&#160;&#160;&#160;&#160;&#160;&#160;&#160;&#160;&#160;&#160;&#160;&#160;&#160;</text>
<polygon fill="none" stroke="#99ccff" points="870.4884,-456.8 870.4884,-475.8 961.4884,-475.8 961.4884,-456.8 870.4884,-456.8"/>
<text text-anchor="start" x="879.6945" y="-462.9" font-family="Courier,monospace" font-size="11.00" fill="#000000">string(255)</text>
<polygon fill="none" stroke="#99ccff" points="106.4884,-437.8 106.4884,-456.8 870.4884,-456.8 870.4884,-437.8 106.4884,-437.8"/>
<text text-anchor="start" x="109.4884" y="-443.9" font-family="Courier,monospace" font-size="11.00" fill="#000000"> &#160;&#160;&#160;&#160;&#160;&#160;&#160;&#160;&#160;&#160;&#160;&#160;&#160;&#160;&#160;&#160;&#160;&#160;&#160;&#160;&#160;&#160;&#160;&#160;&#160;&#160;&#160;&#160;&#160;&#160;&#160;&#160;&#160;&#160;&#160;&#160;&#160;&#160;&#160;&#160;DeviceId &#160;&#160;&#160;&#160;&#160;&#160;&#160;&#160;&#160;&#160;&#160;&#160;&#160;&#160;&#160;&#160;&#160;&#160;&#160;&#160;&#160;&#160;&#160;&#160;&#160;&#160;&#160;&#160;&#160;&#160;&#160;&#160;&#160;&#160;&#160;&#160;&#160;&#160;</text>
<polygon fill="none" stroke="#99ccff" points="870.4884,-437.8 870.4884,-456.8 961.4884,-456.8 961.4884,-437.8 870.4884,-437.8"/>
<text text-anchor="start" x="879.6945" y="-443.9" font-family="Courier,monospace" font-size="11.00" fill="#000000">string(255)</text>
<polygon fill="none" stroke="#99ccff" points="106.4884,-418.8 106.4884,-437.8 870.4884,-437.8 870.4884,-418.8 106.4884,-418.8"/>
<text text-anchor="start" x="109.4884" y="-424.9" font-family="Courier,monospace" font-size="11.00" fill="#000000"> &#160;&#160;&#160;&#160;&#160;&#160;&#160;&#160;&#160;&#160;&#160;&#160;&#160;&#160;&#160;&#160;&#160;&#160;&#160;&#160;&#160;&#160;&#160;&#160;&#160;&#160;&#160;&#160;&#160;&#160;&#160;&#160;&#160;&#160;&#160;&#160;&#160;&#160;&#160;&#160;DeviceModel &#160;&#160;&#160;&#160;&#160;&#160;&#160;&#160;&#160;&#160;&#160;&#160;&#160;&#160;&#160;&#160;&#160;&#160;&#160;&#160;&#160;&#160;&#160;&#160;&#160;&#160;&#160;&#160;&#160;&#160;&#160;&#160;&#160;&#160;&#160;&#160;&#160;&#160;</text>
<polygon fill="none" stroke="#99ccff" points="870.4884,-418.8 870.4884,-437.8 961.4884,-437.8 961.4884,-418.8 870.4884,-418.8"/>
<text text-anchor="start" x="879.6945" y="-424.9" font-family="Courier,monospace" font-size="11.00" fill="#000000">string(255)</text>
<polygon fill="none" stroke="#99ccff" points="106.4884,-399.8 106.4884,-418.8 870.4884,-418.8 870.4884,-399.8 106.4884,-399.8"/>
<text text-anchor="start" x="109.4884" y="-405.9" font-family="Courier,monospace" font-size="11.00" fill="#000000"> &#160;&#160;&#160;&#160;&#160;&#160;&#160;&#160;&#160;&#160;&#160;&#160;&#160;&#160;&#160;&#160;&#160;&#160;&#160;&#160;&#160;&#160;&#160;&#160;&#160;&#160;&#160;&#160;&#160;&#160;&#160;&#160;&#160;&#160;&#160;&#160;&#160;&#160;&#160;&#160;DevicePlatform &#160;&#160;&#160;&#160;&#160;&#160;&#160;&#160;&#160;&#160;&#160;&#160;&#160;&#160;&#160;&#160;&#160;&#160;&#160;&#160;&#160;&#160;&#160;&#160;&#160;&#160;&#160;&#160;&#160;&#160;&#160;&#160;&#160;&#160;&#160;&#160;&#160;&#160;</text>
<polygon fill="none" stroke="#99ccff" points="870.4884,-399.8 870.4884,-418.8 961.4884,-418.8 961.4884,-399.8 870.4884,-399.8"/>
<text text-anchor="start" x="879.6945" y="-405.9" font-family="Courier,monospace" font-size="11.00" fill="#000000">string(255)</text>
<polygon fill="none" stroke="#99ccff" points="106.4884,-380.8 106.4884,-399.8 870.4884,-399.8 870.4884,-380.8 106.4884,-380.8"/>
<text text-anchor="start" x="109.4884" y="-386.9" font-family="Courier,monospace" font-size="11.00" fill="#000000"> &#160;&#160;&#160;&#160;&#160;&#160;&#160;&#160;&#160;&#160;&#160;&#160;&#160;&#160;&#160;&#160;&#160;&#160;&#160;&#160;&#160;&#160;&#160;&#160;&#160;&#160;&#160;&#160;&#160;&#160;&#160;&#160;&#160;&#160;&#160;&#160;&#160;&#160;&#160;&#160;DeviceSessionId &#160;&#160;&#160;&#160;&#160;&#160;&#160;&#160;&#160;&#160;&#160;&#160;&#160;&#160;&#160;&#160;&#160;&#160;&#160;&#160;&#160;&#160;&#160;&#160;&#160;&#160;&#160;&#160;&#160;&#160;&#160;&#160;&#160;&#160;&#160;&#160;&#160;&#160;</text>
<polygon fill="none" stroke="#99ccff" points="870.4884,-380.8 870.4884,-399.8 961.4884,-399.8 961.4884,-380.8 870.4884,-380.8"/>
<text text-anchor="start" x="879.6945" y="-386.9" font-family="Courier,monospace" font-size="11.00" fill="#000000">string(255)</text>
<polygon fill="none" stroke="#99ccff" points="106.4884,-361.8 106.4884,-380.8 870.4884,-380.8 870.4884,-361.8 106.4884,-361.8"/>
<text text-anchor="start" x="109.4884" y="-367.9" font-family="Courier,monospace" font-size="11.00" fill="#000000"> &#160;&#160;&#160;&#160;&#160;&#160;&#160;&#160;&#160;&#160;&#160;&#160;&#160;&#160;&#160;&#160;&#160;&#160;&#160;&#160;&#160;&#160;&#160;&#160;&#160;&#160;&#160;&#160;&#160;&#160;&#160;&#160;&#160;&#160;&#160;&#160;&#160;&#160;&#160;&#160;Duration &#160;&#160;&#160;&#160;&#160;&#160;&#160;&#160;&#160;&#160;&#160;&#160;&#160;&#160;&#160;&#160;&#160;&#160;&#160;&#160;&#160;&#160;&#160;&#160;&#160;&#160;&#160;&#160;&#160;&#160;&#160;&#160;&#160;&#160;&#160;&#160;&#160;&#160;</text>
<polygon fill="none" stroke="#99ccff" points="870.4884,-361.8 870.4884,-380.8 961.4884,-380.8 961.4884,-361.8 870.4884,-361.8"/>
<text text-anchor="start" x="896.1917" y="-367.9" font-family="Courier,monospace" font-size="11.00" fill="#000000">double</text>
<polygon fill="none" stroke="#99ccff" points="106.4884,-342.8 106.4884,-361.8 870.4884,-361.8 870.4884,-342.8 106.4884,-342.8"/>
<text text-anchor="start" x="109.4884" y="-348.9" font-family="Courier,monospace" font-size="11.00" fill="#000000"> &#160;&#160;&#160;&#160;&#160;&#160;&#160;&#160;&#160;&#160;&#160;&#160;&#160;&#160;&#160;&#160;&#160;&#160;&#160;&#160;&#160;&#160;&#160;&#160;&#160;&#160;&#160;&#160;&#160;&#160;&#160;&#160;&#160;&#160;&#160;&#160;&#160;&#160;&#160;&#160;EffectivePageTime &#160;&#160;&#160;&#160;&#160;&#160;&#160;&#160;&#160;&#160;&#160;&#160;&#160;&#160;&#160;&#160;&#160;&#160;&#160;&#160;&#160;&#160;&#160;&#160;&#160;&#160;&#160;&#160;&#160;&#160;&#160;&#160;&#160;&#160;&#160;&#160;&#160;&#160;</text>
<polygon fill="none" stroke="#99ccff" points="870.4884,-342.8 870.4884,-361.8 961.4884,-361.8 961.4884,-342.8 870.4884,-342.8"/>
<text text-anchor="start" x="896.1917" y="-348.9" font-family="Courier,monospace" font-size="11.00" fill="#000000">double</text>
<polygon fill="none" stroke="#99ccff" points="106.4884,-323.8 106.4884,-342.8 870.4884,-342.8 870.4884,-323.8 106.4884,-323.8"/>
<text text-anchor="start" x="109.4884" y="-329.9" font-family="Courier,monospace" font-size="11.00" fill="#000000"> &#160;&#160;&#160;&#160;&#160;&#160;&#160;&#160;&#160;&#160;&#160;&#160;&#160;&#160;&#160;&#160;&#160;&#160;&#160;&#160;&#160;&#160;&#160;&#160;&#160;&#160;&#160;&#160;&#160;&#160;&#160;&#160;&#160;&#160;&#160;&#160;&#160;&#160;&#160;&#160;HasEffectivePageTimeDeviation &#160;&#160;&#160;&#160;&#160;&#160;&#160;&#160;&#160;&#160;&#160;&#160;&#160;&#160;&#160;&#160;&#160;&#160;&#160;&#160;&#160;&#160;&#160;&#160;&#160;&#160;&#160;&#160;&#160;&#160;&#160;&#160;&#160;&#160;&#160;&#160;&#160;&#160;</text>
<polygon fill="none" stroke="#99ccff" points="870.4884,-323.8 870.4884,-342.8 961.4884,-342.8 961.4884,-323.8 870.4884,-323.8"/>
<text text-anchor="start" x="892.8923" y="-329.9" font-family="Courier,monospace" font-size="11.00" fill="#000000">boolean</text>
<polygon fill="none" stroke="#99ccff" points="106.4884,-304.8 106.4884,-323.8 870.4884,-323.8 870.4884,-304.8 106.4884,-304.8"/>
<text text-anchor="start" x="109.0517" y="-310.9" font-family="Courier,monospace" font-size="11.00" fill="#000000"> &#160;&#160;&#160;&#160;&#160;&#160;&#160;&#160;&#160;&#160;&#160;&#160;&#160;&#160;&#160;&#160;&#160;&#160;&#160;&#160;&#160;&#160;&#160;&#160;&#160;&#160;&#160;&#160;&#160;&#160;&#160;&#160;&#160;&#160;&#160;&#160;&#160;&#160;&#160;&#160;EffectivePageTimeDeviationErrorType &#160;&#160;&#160;&#160;&#160;&#160;&#160;&#160;&#160;&#160;&#160;&#160;&#160;&#160;&#160;&#160;&#160;&#160;&#160;&#160;&#160;&#160;&#160;&#160;&#160;&#160;&#160;&#160;&#160;&#160;&#160;&#160;&#160;&#160;&#160;&#160;&#160;&#160;</text>
<polygon fill="none" stroke="#99ccff" points="870.4884,-304.8 870.4884,-323.8 961.4884,-323.8 961.4884,-304.8 870.4884,-304.8"/>
<text text-anchor="start" x="879.6945" y="-310.9" font-family="Courier,monospace" font-size="11.00" fill="#000000">string(255)</text>
<polygon fill="none" stroke="#99ccff" points="106.4884,-285.8 106.4884,-304.8 870.4884,-304.8 870.4884,-285.8 106.4884,-285.8"/>
<text text-anchor="start" x="109.4884" y="-291.9" font-family="Courier,monospace" font-size="11.00" fill="#000000"> &#160;&#160;&#160;&#160;&#160;&#160;&#160;&#160;&#160;&#160;&#160;&#160;&#160;&#160;&#160;&#160;&#160;&#160;&#160;&#160;&#160;&#160;&#160;&#160;&#160;&#160;&#160;&#160;&#160;&#160;&#160;&#160;&#160;&#160;&#160;&#160;&#160;&#160;&#160;&#160;EffectivePageTimeDeviationReason &#160;&#160;&#160;&#160;&#160;&#160;&#160;&#160;&#160;&#160;&#160;&#160;&#160;&#160;&#160;&#160;&#160;&#160;&#160;&#160;&#160;&#160;&#160;&#160;&#160;&#160;&#160;&#160;&#160;&#160;&#160;&#160;&#160;&#160;&#160;&#160;&#160;&#160;</text>
<polygon fill="none" stroke="#99ccff" points="870.4884,-285.8 870.4884,-304.8 961.4884,-304.8 961.4884,-285.8 870.4884,-285.8"/>
<text text-anchor="start" x="879.6945" y="-291.9" font-family="Courier,monospace" font-size="11.00" fill="#000000">string(255)</text>
<polygon fill="none" stroke="#99ccff" points="106.4884,-266.8 106.4884,-285.8 870.4884,-285.8 870.4884,-266.8 106.4884,-266.8"/>
<text text-anchor="start" x="109.4884" y="-272.9" font-family="Courier,monospace" font-size="11.00" fill="#000000"> &#160;&#160;&#160;&#160;&#160;&#160;&#160;&#160;&#160;&#160;&#160;&#160;&#160;&#160;&#160;&#160;&#160;&#160;&#160;&#160;&#160;&#160;&#160;&#160;&#160;&#160;&#160;&#160;&#160;&#160;&#160;&#160;&#160;&#160;&#160;&#160;&#160;&#160;&#160;&#160;UserAgent &#160;&#160;&#160;&#160;&#160;&#160;&#160;&#160;&#160;&#160;&#160;&#160;&#160;&#160;&#160;&#160;&#160;&#160;&#160;&#160;&#160;&#160;&#160;&#160;&#160;&#160;&#160;&#160;&#160;&#160;&#160;&#160;&#160;&#160;&#160;&#160;&#160;&#160;</text>
<polygon fill="none" stroke="#99ccff" points="870.4884,-266.8 870.4884,-285.8 961.4884,-285.8 961.4884,-266.8 870.4884,-266.8"/>
<text text-anchor="start" x="879.6945" y="-272.9" font-family="Courier,monospace" font-size="11.00" fill="#000000">string(512)</text>
<polygon fill="none" stroke="#99ccff" points="106.4884,-247.8 106.4884,-266.8 870.4884,-266.8 870.4884,-247.8 106.4884,-247.8"/>
<text text-anchor="start" x="109.4884" y="-253.9" font-family="Courier,monospace" font-size="11.00" fill="#000000"> &#160;&#160;&#160;&#160;&#160;&#160;&#160;&#160;&#160;&#160;&#160;&#160;&#160;&#160;&#160;&#160;&#160;&#160;&#160;&#160;&#160;&#160;&#160;&#160;&#160;&#160;&#160;&#160;&#160;&#160;&#160;&#160;&#160;&#160;&#160;&#160;&#160;&#160;&#160;&#160;OsName &#160;&#160;&#160;&#160;&#160;&#160;&#160;&#160;&#160;&#160;&#160;&#160;&#160;&#160;&#160;&#160;&#160;&#160;&#160;&#160;&#160;&#160;&#160;&#160;&#160;&#160;&#160;&#160;&#160;&#160;&#160;&#160;&#160;&#160;&#160;&#160;&#160;&#160;</text>
<polygon fill="none" stroke="#99ccff" points="870.4884,-247.8 870.4884,-266.8 961.4884,-266.8 961.4884,-247.8 870.4884,-247.8"/>
<text text-anchor="start" x="879.6945" y="-253.9" font-family="Courier,monospace" font-size="11.00" fill="#000000">string(255)</text>
<polygon fill="none" stroke="#99ccff" points="106.4884,-228.8 106.4884,-247.8 870.4884,-247.8 870.4884,-228.8 106.4884,-228.8"/>
<text text-anchor="start" x="109.4884" y="-234.9" font-family="Courier,monospace" font-size="11.00" fill="#000000"> &#160;&#160;&#160;&#160;&#160;&#160;&#160;&#160;&#160;&#160;&#160;&#160;&#160;&#160;&#160;&#160;&#160;&#160;&#160;&#160;&#160;&#160;&#160;&#160;&#160;&#160;&#160;&#160;&#160;&#160;&#160;&#160;&#160;&#160;&#160;&#160;&#160;&#160;&#160;&#160;OsVersion &#160;&#160;&#160;&#160;&#160;&#160;&#160;&#160;&#160;&#160;&#160;&#160;&#160;&#160;&#160;&#160;&#160;&#160;&#160;&#160;&#160;&#160;&#160;&#160;&#160;&#160;&#160;&#160;&#160;&#160;&#160;&#160;&#160;&#160;&#160;&#160;&#160;&#160;</text>
<polygon fill="none" stroke="#99ccff" points="870.4884,-228.8 870.4884,-247.8 961.4884,-247.8 961.4884,-228.8 870.4884,-228.8"/>
<text text-anchor="start" x="879.6945" y="-234.9" font-family="Courier,monospace" font-size="11.00" fill="#000000">string(255)</text>
<polygon fill="none" stroke="#99ccff" points="106.4884,-209.8 106.4884,-228.8 870.4884,-228.8 870.4884,-209.8 106.4884,-209.8"/>
<text text-anchor="start" x="109.4884" y="-215.9" font-family="Courier,monospace" font-size="11.00" fill="#000000"> &#160;&#160;&#160;&#160;&#160;&#160;&#160;&#160;&#160;&#160;&#160;&#160;&#160;&#160;&#160;&#160;&#160;&#160;&#160;&#160;&#160;&#160;&#160;&#160;&#160;&#160;&#160;&#160;&#160;&#160;&#160;&#160;&#160;&#160;&#160;&#160;&#160;&#160;&#160;&#160;PageStartTime &#160;&#160;&#160;&#160;&#160;&#160;&#160;&#160;&#160;&#160;&#160;&#160;&#160;&#160;&#160;&#160;&#160;&#160;&#160;&#160;&#160;&#160;&#160;&#160;&#160;&#160;&#160;&#160;&#160;&#160;&#160;&#160;&#160;&#160;&#160;&#160;&#160;&#160;</text>
<polygon fill="none" stroke="#99ccff" points="870.4884,-209.8 870.4884,-228.8 961.4884,-228.8 961.4884,-209.8 870.4884,-209.8"/>
<text text-anchor="start" x="889.5928" y="-215.9" font-family="Courier,monospace" font-size="11.00" fill="#000000">datetime</text>
<polygon fill="none" stroke="#99ccff" points="106.4884,-190.8 106.4884,-209.8 870.4884,-209.8 870.4884,-190.8 106.4884,-190.8"/>
<text text-anchor="start" x="109.4884" y="-196.9" font-family="Courier,monospace" font-size="11.00" fill="#000000"> &#160;&#160;&#160;&#160;&#160;&#160;&#160;&#160;&#160;&#160;&#160;&#160;&#160;&#160;&#160;&#160;&#160;&#160;&#160;&#160;&#160;&#160;&#160;&#160;&#160;&#160;&#160;&#160;&#160;&#160;&#160;&#160;&#160;&#160;&#160;&#160;&#160;&#160;&#160;&#160;PageUrl &#160;&#160;&#160;&#160;&#160;&#160;&#160;&#160;&#160;&#160;&#160;&#160;&#160;&#160;&#160;&#160;&#160;&#160;&#160;&#160;&#160;&#160;&#160;&#160;&#160;&#160;&#160;&#160;&#160;&#160;&#160;&#160;&#160;&#160;&#160;&#160;&#160;&#160;</text>
<polygon fill="none" stroke="#99ccff" points="870.4884,-190.8 870.4884,-209.8 961.4884,-209.8 961.4884,-190.8 870.4884,-190.8"/>
<text text-anchor="start" x="889.5928" y="-196.9" font-family="Courier,monospace" font-size="11.00" fill="#000000">url(255)</text>
<polygon fill="none" stroke="#99ccff" points="106.4884,-171.8 106.4884,-190.8 870.4884,-190.8 870.4884,-171.8 106.4884,-171.8"/>
<text text-anchor="start" x="109.4884" y="-177.9" font-family="Courier,monospace" font-size="11.00" fill="#000000"> &#160;&#160;&#160;&#160;&#160;&#160;&#160;&#160;&#160;&#160;&#160;&#160;&#160;&#160;&#160;&#160;&#160;&#160;&#160;&#160;&#160;&#160;&#160;&#160;&#160;&#160;&#160;&#160;&#160;&#160;&#160;&#160;&#160;&#160;&#160;&#160;&#160;&#160;&#160;&#160;PreviousPageAppName &#160;&#160;&#160;&#160;&#160;&#160;&#160;&#160;&#160;&#160;&#160;&#160;&#160;&#160;&#160;&#160;&#160;&#160;&#160;&#160;&#160;&#160;&#160;&#160;&#160;&#160;&#160;&#160;&#160;&#160;&#160;&#160;&#160;&#160;&#160;&#160;&#160;&#160;</text>
<polygon fill="none" stroke="#99ccff" points="870.4884,-171.8 870.4884,-190.8 961.4884,-190.8 961.4884,-171.8 870.4884,-171.8"/>
<text text-anchor="start" x="879.6945" y="-177.9" font-family="Courier,monospace" font-size="11.00" fill="#000000">string(255)</text>
<polygon fill="none" stroke="#99ccff" points="106.4884,-152.8 106.4884,-171.8 870.4884,-171.8 870.4884,-152.8 106.4884,-152.8"/>
<text text-anchor="start" x="109.4884" y="-158.9" font-family="Courier,monospace" font-size="11.00" fill="#000000"> &#160;&#160;&#160;&#160;&#160;&#160;&#160;&#160;&#160;&#160;&#160;&#160;&#160;&#160;&#160;&#160;&#160;&#160;&#160;&#160;&#160;&#160;&#160;&#160;&#160;&#160;&#160;&#160;&#160;&#160;&#160;&#160;&#160;&#160;&#160;&#160;&#160;&#160;&#160;&#160;PreviousPageEntityId &#160;&#160;&#160;&#160;&#160;&#160;&#160;&#160;&#160;&#160;&#160;&#160;&#160;&#160;&#160;&#160;&#160;&#160;&#160;&#160;&#160;&#160;&#160;&#160;&#160;&#160;&#160;&#160;&#160;&#160;&#160;&#160;&#160;&#160;&#160;&#160;&#160;&#160;</text>
<polygon fill="none" stroke="#99ccff" points="870.4884,-152.8 870.4884,-171.8 961.4884,-171.8 961.4884,-152.8 870.4884,-152.8"/>
<text text-anchor="start" x="873.0956" y="-158.9" font-family="Courier,monospace" font-size="11.00" fill="#000000">reference(18)</text>
<polygon fill="none" stroke="#99ccff" points="106.4884,-133.8 106.4884,-152.8 870.4884,-152.8 870.4884,-133.8 106.4884,-133.8"/>
<text text-anchor="start" x="109.4884" y="-139.9" font-family="Courier,monospace" font-size="11.00" fill="#000000"> &#160;&#160;&#160;&#160;&#160;&#160;&#160;&#160;&#160;&#160;&#160;&#160;&#160;&#160;&#160;&#160;&#160;&#160;&#160;&#160;&#160;&#160;&#160;&#160;&#160;&#160;&#160;&#160;&#160;&#160;&#160;&#160;&#160;&#160;&#160;&#160;&#160;&#160;&#160;&#160;PreviousPageEntityType &#160;&#160;&#160;&#160;&#160;&#160;&#160;&#160;&#160;&#160;&#160;&#160;&#160;&#160;&#160;&#160;&#160;&#160;&#160;&#160;&#160;&#160;&#160;&#160;&#160;&#160;&#160;&#160;&#160;&#160;&#160;&#160;&#160;&#160;&#160;&#160;&#160;&#160;</text>
<polygon fill="none" stroke="#99ccff" points="870.4884,-133.8 870.4884,-152.8 961.4884,-152.8 961.4884,-133.8 870.4884,-133.8"/>
<text text-anchor="start" x="879.6945" y="-139.9" font-family="Courier,monospace" font-size="11.00" fill="#000000">string(255)</text>
<polygon fill="none" stroke="#99ccff" points="106.4884,-114.8 106.4884,-133.8 870.4884,-133.8 870.4884,-114.8 106.4884,-114.8"/>
<text text-anchor="start" x="109.4884" y="-120.9" font-family="Courier,monospace" font-size="11.00" fill="#000000"> &#160;&#160;&#160;&#160;&#160;&#160;&#160;&#160;&#160;&#160;&#160;&#160;&#160;&#160;&#160;&#160;&#160;&#160;&#160;&#160;&#160;&#160;&#160;&#160;&#160;&#160;&#160;&#160;&#160;&#160;&#160;&#160;&#160;&#160;&#160;&#160;&#160;&#160;&#160;&#160;PreviousPageUrl &#160;&#160;&#160;&#160;&#160;&#160;&#160;&#160;&#160;&#160;&#160;&#160;&#160;&#160;&#160;&#160;&#160;&#160;&#160;&#160;&#160;&#160;&#160;&#160;&#160;&#160;&#160;&#160;&#160;&#160;&#160;&#160;&#160;&#160;&#160;&#160;&#160;&#160;</text>
<polygon fill="none" stroke="#99ccff" points="870.4884,-114.8 870.4884,-133.8 961.4884,-133.8 961.4884,-114.8 870.4884,-114.8"/>
<text text-anchor="start" x="889.5928" y="-120.9" font-family="Courier,monospace" font-size="11.00" fill="#000000">url(255)</text>
<polygon fill="none" stroke="#99ccff" points="106.4884,-95.8 106.4884,-114.8 870.4884,-114.8 870.4884,-95.8 106.4884,-95.8"/>
<text text-anchor="start" x="109.4884" y="-101.9" font-family="Courier,monospace" font-size="11.00" fill="#000000"> &#160;&#160;&#160;&#160;&#160;&#160;&#160;&#160;&#160;&#160;&#160;&#160;&#160;&#160;&#160;&#160;&#160;&#160;&#160;&#160;&#160;&#160;&#160;&#160;&#160;&#160;&#160;&#160;&#160;&#160;&#160;&#160;&#160;&#160;&#160;&#160;&#160;&#160;&#160;&#160;SdkAppType &#160;&#160;&#160;&#160;&#160;&#160;&#160;&#160;&#160;&#160;&#160;&#160;&#160;&#160;&#160;&#160;&#160;&#160;&#160;&#160;&#160;&#160;&#160;&#160;&#160;&#160;&#160;&#160;&#160;&#160;&#160;&#160;&#160;&#160;&#160;&#160;&#160;&#160;</text>
<polygon fill="none" stroke="#99ccff" points="870.4884,-95.8 870.4884,-114.8 961.4884,-114.8 961.4884,-95.8 870.4884,-95.8"/>
<text text-anchor="start" x="879.6945" y="-101.9" font-family="Courier,monospace" font-size="11.00" fill="#000000">string(255)</text>
<polygon fill="none" stroke="#99ccff" points="106.4884,-76.8 106.4884,-95.8 870.4884,-95.8 870.4884,-76.8 106.4884,-76.8"/>
<text text-anchor="start" x="109.4884" y="-82.9" font-family="Courier,monospace" font-size="11.00" fill="#000000"> &#160;&#160;&#160;&#160;&#160;&#160;&#160;&#160;&#160;&#160;&#160;&#160;&#160;&#160;&#160;&#160;&#160;&#160;&#160;&#160;&#160;&#160;&#160;&#160;&#160;&#160;&#160;&#160;&#160;&#160;&#160;&#160;&#160;&#160;&#160;&#160;&#160;&#160;&#160;&#160;SdkAppVersion &#160;&#160;&#160;&#160;&#160;&#160;&#160;&#160;&#160;&#160;&#160;&#160;&#160;&#160;&#160;&#160;&#160;&#160;&#160;&#160;&#160;&#160;&#160;&#160;&#160;&#160;&#160;&#160;&#160;&#160;&#160;&#160;&#160;&#160;&#160;&#160;&#160;&#160;</text>
<polygon fill="none" stroke="#99ccff" points="870.4884,-76.8 870.4884,-95.8 961.4884,-95.8 961.4884,-76.8 870.4884,-76.8"/>
<text text-anchor="start" x="879.6945" y="-82.9" font-family="Courier,monospace" font-size="11.00" fill="#000000">string(255)</text>
<polygon fill="none" stroke="#99ccff" points="106.4884,-57.8 106.4884,-76.8 870.4884,-76.8 870.4884,-57.8 106.4884,-57.8"/>
<text text-anchor="start" x="109.4884" y="-63.9" font-family="Courier,monospace" font-size="11.00" fill="#000000"> &#160;&#160;&#160;&#160;&#160;&#160;&#160;&#160;&#160;&#160;&#160;&#160;&#160;&#160;&#160;&#160;&#160;&#160;&#160;&#160;&#160;&#160;&#160;&#160;&#160;&#160;&#160;&#160;&#160;&#160;&#160;&#160;&#160;&#160;&#160;&#160;&#160;&#160;&#160;&#160;SdkVersion &#160;&#160;&#160;&#160;&#160;&#160;&#160;&#160;&#160;&#160;&#160;&#160;&#160;&#160;&#160;&#160;&#160;&#160;&#160;&#160;&#160;&#160;&#160;&#160;&#160;&#160;&#160;&#160;&#160;&#160;&#160;&#160;&#160;&#160;&#160;&#160;&#160;&#160;</text>
<polygon fill="none" stroke="#99ccff" points="870.4884,-57.8 870.4884,-76.8 961.4884,-76.8 961.4884,-57.8 870.4884,-57.8"/>
<text text-anchor="start" x="879.6945" y="-63.9" font-family="Courier,monospace" font-size="11.00" fill="#000000">string(255)</text>
<polygon fill="none" stroke="#99ccff" points="106.4884,-38.8 106.4884,-57.8 870.4884,-57.8 870.4884,-38.8 106.4884,-38.8"/>
<text text-anchor="start" x="109.4884" y="-44.9" font-family="Courier,monospace" font-size="11.00" fill="#000000"> &#160;&#160;&#160;&#160;&#160;&#160;&#160;&#160;&#160;&#160;&#160;&#160;&#160;&#160;&#160;&#160;&#160;&#160;&#160;&#160;&#160;&#160;&#160;&#160;&#160;&#160;&#160;&#160;&#160;&#160;&#160;&#160;&#160;&#160;&#160;&#160;&#160;&#160;&#160;&#160;RecordId &#160;&#160;&#160;&#160;&#160;&#160;&#160;&#160;&#160;&#160;&#160;&#160;&#160;&#160;&#160;&#160;&#160;&#160;&#160;&#160;&#160;&#160;&#160;&#160;&#160;&#160;&#160;&#160;&#160;&#160;&#160;&#160;&#160;&#160;&#160;&#160;&#160;&#160;</text>
<polygon fill="none" stroke="#99ccff" points="870.4884,-38.8 870.4884,-57.8 961.4884,-57.8 961.4884,-38.8 870.4884,-38.8"/>
<text text-anchor="start" x="873.0956" y="-44.9" font-family="Courier,monospace" font-size="11.00" fill="#000000">reference(18)</text>
<polygon fill="none" stroke="#99ccff" points="106.4884,-19.8 106.4884,-38.8 870.4884,-38.8 870.4884,-19.8 106.4884,-19.8"/>
<text text-anchor="start" x="109.4884" y="-25.9" font-family="Courier,monospace" font-size="11.00" fill="#000000"> &#160;&#160;&#160;&#160;&#160;&#160;&#160;&#160;&#160;&#160;&#160;&#160;&#160;&#160;&#160;&#160;&#160;&#160;&#160;&#160;&#160;&#160;&#160;&#160;&#160;&#160;&#160;&#160;&#160;&#160;&#160;&#160;&#160;&#160;&#160;&#160;&#160;&#160;&#160;&#160;UserType &#160;&#160;&#160;&#160;&#160;&#160;&#160;&#160;&#160;&#160;&#160;&#160;&#160;&#160;&#160;&#160;&#160;&#160;&#160;&#160;&#160;&#160;&#160;&#160;&#160;&#160;&#160;&#160;&#160;&#160;&#160;&#160;&#160;&#160;&#160;&#160;&#160;&#160;</text>
<polygon fill="none" stroke="#99ccff" points="870.4884,-19.8 870.4884,-38.8 961.4884,-38.8 961.4884,-19.8 870.4884,-19.8"/>
<text text-anchor="start" x="873.0956" y="-25.9" font-family="Courier,monospace" font-size="11.00" fill="#000000">picklist(255)</text>
<polygon fill="none" stroke="#99ccff" points="104.9884,-18.8 104.9884,-742.8 961.9884,-742.8 961.9884,-18.8 104.9884,-18.8"/>
</a>
</g>
</g>
<!-- User -->
<g id="node2" class="node">
<title>User</title>
<text text-anchor="middle" x="27" y="-672.5" font-family="Courier,monospace" font-size="11.00" fill="#000000">User</text>
</g>
<!-- LightningUriEvent&#45;&gt;User -->
<g id="edge1" class="edge">
<title>LightningUriEvent:w&#45;&gt;User:e</title>
<path fill="none" stroke="#ff99cc" d="M91.874,-675.8C78.7336,-675.8 65.3757,-675.8 54.2238,-675.8"/>
<polygon fill="#ff99cc" stroke="#ff99cc" points="98.4884,-675.8001 106.4884,-679.4 102.4884,-675.8 106.4884,-675.8 106.4884,-675.8 106.4884,-675.8 102.4884,-675.8 106.4884,-672.2 98.4884,-675.8001 98.4884,-675.8001"/>
<ellipse fill="none" stroke="#ff99cc" cx="95.2884" cy="-675.8001" rx="3.2" ry="3.2"/>
<text text-anchor="middle" x="79.4942" y="-678.5" font-family="Monaco" font-size="9.00" fill="#000000">User</text>
</g>
</g>
</svg>
