<?xml version="1.0" encoding="UTF-8" standalone="no"?>
<!DOCTYPE svg PUBLIC "-//W3C//DTD SVG 1.1//EN"
 "http://www.w3.org/Graphics/SVG/1.1/DTD/svg11.dtd">
<!-- Generated by graphviz version 2.40.1 (20161225.0304)
 -->
<!-- Title: Salesforce+ ERD Pages: 1 -->
<svg width="1018pt" height="789pt"
 viewBox="0.00 0.00 1017.97 788.80" xmlns="http://www.w3.org/2000/svg" xmlns:xlink="http://www.w3.org/1999/xlink">
<g id="graph0" class="graph" transform="scale(1 1) rotate(0) translate(4 784.8)">
<title>Salesforce+ ERD</title>
<polygon fill="#efeffd" stroke="transparent" points="-4,4 -4,-784.8 1013.9729,-784.8 1013.9729,4 -4,4"/>
<text text-anchor="middle" x="961.4797" y="-6.7" font-family="Courier,monospace" font-size="9.00" fill="#000000">Salesforce ERD </text>
<!-- LoginEvent -->
<g id="node1" class="node">
<title>LoginEvent</title>
<g id="a_node1"><a xlink:href="#" xlink:title=" LoginEvent ">
<polygon fill="#ffeeff" stroke="transparent" points="237.9729,-18.8 237.9729,-780.8 1009.9729,-780.8 1009.9729,-18.8 237.9729,-18.8"/>
<polygon fill="#add8e6" stroke="transparent" points="238.9729,-760.8 238.9729,-779.8 1008.9729,-779.8 1008.9729,-760.8 238.9729,-760.8"/>
<polygon fill="none" stroke="#99ccff" points="238.9729,-760.8 238.9729,-779.8 1008.9729,-779.8 1008.9729,-760.8 238.9729,-760.8"/>
<text text-anchor="start" x="590.9784" y="-767.9" font-family="Courier,monospace" font-weight="bold" font-size="11.00" fill="#000000">LoginEvent</text>
<polygon fill="#99ccff" stroke="transparent" points="238.9729,-741.8 238.9729,-760.8 917.9729,-760.8 917.9729,-741.8 238.9729,-741.8"/>
<polygon fill="none" stroke="#99ccff" points="238.9729,-741.8 238.9729,-760.8 917.9729,-760.8 917.9729,-741.8 238.9729,-741.8"/>
<text text-anchor="start" x="241.9729" y="-748.9" font-family="Courier,monospace" font-size="11.00" fill="#000000"> &#160;&#160;&#160;&#160;&#160;&#160;&#160;&#160;&#160;&#160;&#160;&#160;&#160;&#160;&#160;&#160;&#160;&#160;&#160;&#160;&#160;&#160;&#160;&#160;&#160;&#160;&#160;&#160;&#160;&#160;&#160;&#160;&#160;&#160;&#160;&#160;&#160;&#160;&#160;&#160;&#160;&#160;</text>
<text text-anchor="start" x="525.7256" y="-748.9" font-family="Courier,monospace" font-weight="bold" font-size="11.00" fill="#000000">Id</text>
<text text-anchor="start" x="538.9234" y="-748.9" font-family="Courier,monospace" font-size="11.00" fill="#000000"> &#160;&#160;&#160;&#160;&#160;&#160;&#160;&#160;&#160;&#160;&#160;&#160;&#160;&#160;&#160;&#160;&#160;&#160;&#160;&#160;&#160;&#160;&#160;&#160;&#160;&#160;&#160;&#160;&#160;&#160;&#160;&#160;&#160;&#160;&#160;&#160;&#160;&#160;&#160;</text>
<polygon fill="none" stroke="#99ccff" points="917.9729,-741.8 917.9729,-760.8 1008.9729,-760.8 1008.9729,-741.8 917.9729,-741.8"/>
<text text-anchor="start" x="943.6762" y="-747.9" font-family="Courier,monospace" font-size="11.00" fill="#000000">id(18)</text>
<polygon fill="none" stroke="#99ccff" points="238.9729,-722.8 238.9729,-741.8 917.9729,-741.8 917.9729,-722.8 238.9729,-722.8"/>
<text text-anchor="start" x="241.9729" y="-728.9" font-family="Courier,monospace" font-size="11.00" fill="#000000"> &#160;&#160;&#160;&#160;&#160;&#160;&#160;&#160;&#160;&#160;&#160;&#160;&#160;&#160;&#160;&#160;&#160;&#160;&#160;&#160;&#160;&#160;&#160;&#160;&#160;&#160;&#160;&#160;&#160;&#160;&#160;&#160;&#160;&#160;&#160;&#160;&#160;&#160;&#160;&#160;EventIdentifier &#160;&#160;&#160;&#160;&#160;&#160;&#160;&#160;&#160;&#160;&#160;&#160;&#160;&#160;&#160;&#160;&#160;&#160;&#160;&#160;&#160;&#160;&#160;&#160;&#160;&#160;&#160;&#160;&#160;&#160;&#160;&#160;&#160;&#160;&#160;&#160;&#160;&#160;</text>
<polygon fill="none" stroke="#99ccff" points="917.9729,-722.8 917.9729,-741.8 1008.9729,-741.8 1008.9729,-722.8 917.9729,-722.8"/>
<text text-anchor="start" x="930.4784" y="-728.9" font-family="Courier,monospace" font-size="11.00" fill="#000000">string(80)</text>
<polygon fill="none" stroke="#99ccff" points="238.9729,-703.8 238.9729,-722.8 917.9729,-722.8 917.9729,-703.8 238.9729,-703.8"/>
<text text-anchor="start" x="241.9729" y="-709.9" font-family="Courier,monospace" font-size="11.00" fill="#000000"> &#160;&#160;&#160;&#160;&#160;&#160;&#160;&#160;&#160;&#160;&#160;&#160;&#160;&#160;&#160;&#160;&#160;&#160;&#160;&#160;&#160;&#160;&#160;&#160;&#160;&#160;&#160;&#160;&#160;&#160;&#160;&#160;&#160;&#160;&#160;&#160;&#160;&#160;&#160;&#160;UserId &#160;&#160;&#160;&#160;&#160;&#160;&#160;&#160;&#160;&#160;&#160;&#160;&#160;&#160;&#160;&#160;&#160;&#160;&#160;&#160;&#160;&#160;&#160;&#160;&#160;&#160;&#160;&#160;&#160;&#160;&#160;&#160;&#160;&#160;&#160;&#160;&#160;&#160;</text>
<polygon fill="none" stroke="#99ccff" points="917.9729,-703.8 917.9729,-722.8 1008.9729,-722.8 1008.9729,-703.8 917.9729,-703.8"/>
<text text-anchor="start" x="920.5801" y="-709.9" font-family="Courier,monospace" font-size="11.00" fill="#000000">reference(18)</text>
<polygon fill="none" stroke="#99ccff" points="238.9729,-684.8 238.9729,-703.8 917.9729,-703.8 917.9729,-684.8 238.9729,-684.8"/>
<text text-anchor="start" x="241.9729" y="-690.9" font-family="Courier,monospace" font-size="11.00" fill="#000000"> &#160;&#160;&#160;&#160;&#160;&#160;&#160;&#160;&#160;&#160;&#160;&#160;&#160;&#160;&#160;&#160;&#160;&#160;&#160;&#160;&#160;&#160;&#160;&#160;&#160;&#160;&#160;&#160;&#160;&#160;&#160;&#160;&#160;&#160;&#160;&#160;&#160;&#160;&#160;&#160;Username &#160;&#160;&#160;&#160;&#160;&#160;&#160;&#160;&#160;&#160;&#160;&#160;&#160;&#160;&#160;&#160;&#160;&#160;&#160;&#160;&#160;&#160;&#160;&#160;&#160;&#160;&#160;&#160;&#160;&#160;&#160;&#160;&#160;&#160;&#160;&#160;&#160;&#160;</text>
<polygon fill="none" stroke="#99ccff" points="917.9729,-684.8 917.9729,-703.8 1008.9729,-703.8 1008.9729,-684.8 917.9729,-684.8"/>
<text text-anchor="start" x="930.4784" y="-690.9" font-family="Courier,monospace" font-size="11.00" fill="#000000">string(80)</text>
<polygon fill="none" stroke="#99ccff" points="238.9729,-665.8 238.9729,-684.8 917.9729,-684.8 917.9729,-665.8 238.9729,-665.8"/>
<text text-anchor="start" x="241.9729" y="-671.9" font-family="Courier,monospace" font-size="11.00" fill="#000000"> &#160;&#160;&#160;&#160;&#160;&#160;&#160;&#160;&#160;&#160;&#160;&#160;&#160;&#160;&#160;&#160;&#160;&#160;&#160;&#160;&#160;&#160;&#160;&#160;&#160;&#160;&#160;&#160;&#160;&#160;&#160;&#160;&#160;&#160;&#160;&#160;&#160;&#160;&#160;&#160;EventDate &#160;&#160;&#160;&#160;&#160;&#160;&#160;&#160;&#160;&#160;&#160;&#160;&#160;&#160;&#160;&#160;&#160;&#160;&#160;&#160;&#160;&#160;&#160;&#160;&#160;&#160;&#160;&#160;&#160;&#160;&#160;&#160;&#160;&#160;&#160;&#160;&#160;&#160;</text>
<polygon fill="none" stroke="#99ccff" points="917.9729,-665.8 917.9729,-684.8 1008.9729,-684.8 1008.9729,-665.8 917.9729,-665.8"/>
<text text-anchor="start" x="937.0773" y="-671.9" font-family="Courier,monospace" font-size="11.00" fill="#000000">datetime</text>
<polygon fill="none" stroke="#99ccff" points="238.9729,-646.8 238.9729,-665.8 917.9729,-665.8 917.9729,-646.8 238.9729,-646.8"/>
<text text-anchor="start" x="241.929" y="-652.9" font-family="Courier,monospace" font-size="11.00" fill="#000000"> &#160;&#160;&#160;&#160;&#160;&#160;&#160;&#160;&#160;&#160;&#160;&#160;&#160;&#160;&#160;&#160;&#160;&#160;&#160;&#160;&#160;&#160;&#160;&#160;&#160;&#160;&#160;&#160;&#160;&#160;&#160;&#160;&#160;&#160;&#160;&#160;&#160;&#160;&#160;&#160;RelatedEventIdentifier &#160;&#160;&#160;&#160;&#160;&#160;&#160;&#160;&#160;&#160;&#160;&#160;&#160;&#160;&#160;&#160;&#160;&#160;&#160;&#160;&#160;&#160;&#160;&#160;&#160;&#160;&#160;&#160;&#160;&#160;&#160;&#160;&#160;&#160;&#160;&#160;&#160;&#160;</text>
<polygon fill="none" stroke="#99ccff" points="917.9729,-646.8 917.9729,-665.8 1008.9729,-665.8 1008.9729,-646.8 917.9729,-646.8"/>
<text text-anchor="start" x="930.4784" y="-652.9" font-family="Courier,monospace" font-size="11.00" fill="#000000">string(80)</text>
<polygon fill="none" stroke="#99ccff" points="238.9729,-627.8 238.9729,-646.8 917.9729,-646.8 917.9729,-627.8 238.9729,-627.8"/>
<text text-anchor="start" x="241.9729" y="-633.9" font-family="Courier,monospace" font-size="11.00" fill="#000000"> &#160;&#160;&#160;&#160;&#160;&#160;&#160;&#160;&#160;&#160;&#160;&#160;&#160;&#160;&#160;&#160;&#160;&#160;&#160;&#160;&#160;&#160;&#160;&#160;&#160;&#160;&#160;&#160;&#160;&#160;&#160;&#160;&#160;&#160;&#160;&#160;&#160;&#160;&#160;&#160;PolicyId &#160;&#160;&#160;&#160;&#160;&#160;&#160;&#160;&#160;&#160;&#160;&#160;&#160;&#160;&#160;&#160;&#160;&#160;&#160;&#160;&#160;&#160;&#160;&#160;&#160;&#160;&#160;&#160;&#160;&#160;&#160;&#160;&#160;&#160;&#160;&#160;&#160;&#160;</text>
<polygon fill="none" stroke="#99ccff" points="917.9729,-627.8 917.9729,-646.8 1008.9729,-646.8 1008.9729,-627.8 917.9729,-627.8"/>
<text text-anchor="start" x="920.5801" y="-633.9" font-family="Courier,monospace" font-size="11.00" fill="#000000">reference(18)</text>
<polygon fill="none" stroke="#99ccff" points="238.9729,-608.8 238.9729,-627.8 917.9729,-627.8 917.9729,-608.8 238.9729,-608.8"/>
<text text-anchor="start" x="241.9729" y="-614.9" font-family="Courier,monospace" font-size="11.00" fill="#000000"> &#160;&#160;&#160;&#160;&#160;&#160;&#160;&#160;&#160;&#160;&#160;&#160;&#160;&#160;&#160;&#160;&#160;&#160;&#160;&#160;&#160;&#160;&#160;&#160;&#160;&#160;&#160;&#160;&#160;&#160;&#160;&#160;&#160;&#160;&#160;&#160;&#160;&#160;&#160;&#160;PolicyOutcome &#160;&#160;&#160;&#160;&#160;&#160;&#160;&#160;&#160;&#160;&#160;&#160;&#160;&#160;&#160;&#160;&#160;&#160;&#160;&#160;&#160;&#160;&#160;&#160;&#160;&#160;&#160;&#160;&#160;&#160;&#160;&#160;&#160;&#160;&#160;&#160;&#160;&#160;</text>
<polygon fill="none" stroke="#99ccff" points="917.9729,-608.8 917.9729,-627.8 1008.9729,-627.8 1008.9729,-608.8 917.9729,-608.8"/>
<text text-anchor="start" x="920.5801" y="-614.9" font-family="Courier,monospace" font-size="11.00" fill="#000000">picklist(255)</text>
<polygon fill="none" stroke="#99ccff" points="238.9729,-589.8 238.9729,-608.8 917.9729,-608.8 917.9729,-589.8 238.9729,-589.8"/>
<text text-anchor="start" x="241.9729" y="-595.9" font-family="Courier,monospace" font-size="11.00" fill="#000000"> &#160;&#160;&#160;&#160;&#160;&#160;&#160;&#160;&#160;&#160;&#160;&#160;&#160;&#160;&#160;&#160;&#160;&#160;&#160;&#160;&#160;&#160;&#160;&#160;&#160;&#160;&#160;&#160;&#160;&#160;&#160;&#160;&#160;&#160;&#160;&#160;&#160;&#160;&#160;&#160;EvaluationTime &#160;&#160;&#160;&#160;&#160;&#160;&#160;&#160;&#160;&#160;&#160;&#160;&#160;&#160;&#160;&#160;&#160;&#160;&#160;&#160;&#160;&#160;&#160;&#160;&#160;&#160;&#160;&#160;&#160;&#160;&#160;&#160;&#160;&#160;&#160;&#160;&#160;&#160;</text>
<polygon fill="none" stroke="#99ccff" points="917.9729,-589.8 917.9729,-608.8 1008.9729,-608.8 1008.9729,-589.8 917.9729,-589.8"/>
<text text-anchor="start" x="943.6762" y="-595.9" font-family="Courier,monospace" font-size="11.00" fill="#000000">double</text>
<polygon fill="none" stroke="#99ccff" points="238.9729,-570.8 238.9729,-589.8 917.9729,-589.8 917.9729,-570.8 238.9729,-570.8"/>
<text text-anchor="start" x="241.9729" y="-576.9" font-family="Courier,monospace" font-size="11.00" fill="#000000"> &#160;&#160;&#160;&#160;&#160;&#160;&#160;&#160;&#160;&#160;&#160;&#160;&#160;&#160;&#160;&#160;&#160;&#160;&#160;&#160;&#160;&#160;&#160;&#160;&#160;&#160;&#160;&#160;&#160;&#160;&#160;&#160;&#160;&#160;&#160;&#160;&#160;&#160;&#160;&#160;SessionKey &#160;&#160;&#160;&#160;&#160;&#160;&#160;&#160;&#160;&#160;&#160;&#160;&#160;&#160;&#160;&#160;&#160;&#160;&#160;&#160;&#160;&#160;&#160;&#160;&#160;&#160;&#160;&#160;&#160;&#160;&#160;&#160;&#160;&#160;&#160;&#160;&#160;&#160;</text>
<polygon fill="none" stroke="#99ccff" points="917.9729,-570.8 917.9729,-589.8 1008.9729,-589.8 1008.9729,-570.8 917.9729,-570.8"/>
<text text-anchor="start" x="930.4784" y="-576.9" font-family="Courier,monospace" font-size="11.00" fill="#000000">string(24)</text>
<polygon fill="none" stroke="#99ccff" points="238.9729,-551.8 238.9729,-570.8 917.9729,-570.8 917.9729,-551.8 238.9729,-551.8"/>
<text text-anchor="start" x="241.9729" y="-557.9" font-family="Courier,monospace" font-size="11.00" fill="#000000"> &#160;&#160;&#160;&#160;&#160;&#160;&#160;&#160;&#160;&#160;&#160;&#160;&#160;&#160;&#160;&#160;&#160;&#160;&#160;&#160;&#160;&#160;&#160;&#160;&#160;&#160;&#160;&#160;&#160;&#160;&#160;&#160;&#160;&#160;&#160;&#160;&#160;&#160;&#160;&#160;LoginKey &#160;&#160;&#160;&#160;&#160;&#160;&#160;&#160;&#160;&#160;&#160;&#160;&#160;&#160;&#160;&#160;&#160;&#160;&#160;&#160;&#160;&#160;&#160;&#160;&#160;&#160;&#160;&#160;&#160;&#160;&#160;&#160;&#160;&#160;&#160;&#160;&#160;&#160;</text>
<polygon fill="none" stroke="#99ccff" points="917.9729,-551.8 917.9729,-570.8 1008.9729,-570.8 1008.9729,-551.8 917.9729,-551.8"/>
<text text-anchor="start" x="930.4784" y="-557.9" font-family="Courier,monospace" font-size="11.00" fill="#000000">string(24)</text>
<polygon fill="none" stroke="#99ccff" points="238.9729,-532.8 238.9729,-551.8 917.9729,-551.8 917.9729,-532.8 238.9729,-532.8"/>
<text text-anchor="start" x="241.9729" y="-538.9" font-family="Courier,monospace" font-size="11.00" fill="#000000"> &#160;&#160;&#160;&#160;&#160;&#160;&#160;&#160;&#160;&#160;&#160;&#160;&#160;&#160;&#160;&#160;&#160;&#160;&#160;&#160;&#160;&#160;&#160;&#160;&#160;&#160;&#160;&#160;&#160;&#160;&#160;&#160;&#160;&#160;&#160;&#160;&#160;&#160;&#160;&#160;SessionLevel &#160;&#160;&#160;&#160;&#160;&#160;&#160;&#160;&#160;&#160;&#160;&#160;&#160;&#160;&#160;&#160;&#160;&#160;&#160;&#160;&#160;&#160;&#160;&#160;&#160;&#160;&#160;&#160;&#160;&#160;&#160;&#160;&#160;&#160;&#160;&#160;&#160;&#160;</text>
<polygon fill="none" stroke="#99ccff" points="917.9729,-532.8 917.9729,-551.8 1008.9729,-551.8 1008.9729,-532.8 917.9729,-532.8"/>
<text text-anchor="start" x="920.5801" y="-538.9" font-family="Courier,monospace" font-size="11.00" fill="#000000">picklist(255)</text>
<polygon fill="none" stroke="#99ccff" points="238.9729,-513.8 238.9729,-532.8 917.9729,-532.8 917.9729,-513.8 238.9729,-513.8"/>
<text text-anchor="start" x="241.9729" y="-519.9" font-family="Courier,monospace" font-size="11.00" fill="#000000"> &#160;&#160;&#160;&#160;&#160;&#160;&#160;&#160;&#160;&#160;&#160;&#160;&#160;&#160;&#160;&#160;&#160;&#160;&#160;&#160;&#160;&#160;&#160;&#160;&#160;&#160;&#160;&#160;&#160;&#160;&#160;&#160;&#160;&#160;&#160;&#160;&#160;&#160;&#160;&#160;SourceIp &#160;&#160;&#160;&#160;&#160;&#160;&#160;&#160;&#160;&#160;&#160;&#160;&#160;&#160;&#160;&#160;&#160;&#160;&#160;&#160;&#160;&#160;&#160;&#160;&#160;&#160;&#160;&#160;&#160;&#160;&#160;&#160;&#160;&#160;&#160;&#160;&#160;&#160;</text>
<polygon fill="none" stroke="#99ccff" points="917.9729,-513.8 917.9729,-532.8 1008.9729,-532.8 1008.9729,-513.8 917.9729,-513.8"/>
<text text-anchor="start" x="930.4784" y="-519.9" font-family="Courier,monospace" font-size="11.00" fill="#000000">string(80)</text>
<polygon fill="none" stroke="#99ccff" points="238.9729,-494.8 238.9729,-513.8 917.9729,-513.8 917.9729,-494.8 238.9729,-494.8"/>
<text text-anchor="start" x="241.9729" y="-500.9" font-family="Courier,monospace" font-size="11.00" fill="#000000"> &#160;&#160;&#160;&#160;&#160;&#160;&#160;&#160;&#160;&#160;&#160;&#160;&#160;&#160;&#160;&#160;&#160;&#160;&#160;&#160;&#160;&#160;&#160;&#160;&#160;&#160;&#160;&#160;&#160;&#160;&#160;&#160;&#160;&#160;&#160;&#160;&#160;&#160;&#160;&#160;AdditionalInfo &#160;&#160;&#160;&#160;&#160;&#160;&#160;&#160;&#160;&#160;&#160;&#160;&#160;&#160;&#160;&#160;&#160;&#160;&#160;&#160;&#160;&#160;&#160;&#160;&#160;&#160;&#160;&#160;&#160;&#160;&#160;&#160;&#160;&#160;&#160;&#160;&#160;&#160;</text>
<polygon fill="none" stroke="#99ccff" points="917.9729,-494.8 917.9729,-513.8 1008.9729,-513.8 1008.9729,-494.8 917.9729,-494.8"/>
<text text-anchor="start" x="920.5801" y="-500.9" font-family="Courier,monospace" font-size="11.00" fill="#000000">string(10000)</text>
<polygon fill="none" stroke="#99ccff" points="238.9729,-475.8 238.9729,-494.8 917.9729,-494.8 917.9729,-475.8 238.9729,-475.8"/>
<text text-anchor="start" x="241.9729" y="-481.9" font-family="Courier,monospace" font-size="11.00" fill="#000000"> &#160;&#160;&#160;&#160;&#160;&#160;&#160;&#160;&#160;&#160;&#160;&#160;&#160;&#160;&#160;&#160;&#160;&#160;&#160;&#160;&#160;&#160;&#160;&#160;&#160;&#160;&#160;&#160;&#160;&#160;&#160;&#160;&#160;&#160;&#160;&#160;&#160;&#160;&#160;&#160;ApiType &#160;&#160;&#160;&#160;&#160;&#160;&#160;&#160;&#160;&#160;&#160;&#160;&#160;&#160;&#160;&#160;&#160;&#160;&#160;&#160;&#160;&#160;&#160;&#160;&#160;&#160;&#160;&#160;&#160;&#160;&#160;&#160;&#160;&#160;&#160;&#160;&#160;&#160;</text>
<polygon fill="none" stroke="#99ccff" points="917.9729,-475.8 917.9729,-494.8 1008.9729,-494.8 1008.9729,-475.8 917.9729,-475.8"/>
<text text-anchor="start" x="930.4784" y="-481.9" font-family="Courier,monospace" font-size="11.00" fill="#000000">string(64)</text>
<polygon fill="none" stroke="#99ccff" points="238.9729,-456.8 238.9729,-475.8 917.9729,-475.8 917.9729,-456.8 238.9729,-456.8"/>
<text text-anchor="start" x="241.9729" y="-462.9" font-family="Courier,monospace" font-size="11.00" fill="#000000"> &#160;&#160;&#160;&#160;&#160;&#160;&#160;&#160;&#160;&#160;&#160;&#160;&#160;&#160;&#160;&#160;&#160;&#160;&#160;&#160;&#160;&#160;&#160;&#160;&#160;&#160;&#160;&#160;&#160;&#160;&#160;&#160;&#160;&#160;&#160;&#160;&#160;&#160;&#160;&#160;ApiVersion &#160;&#160;&#160;&#160;&#160;&#160;&#160;&#160;&#160;&#160;&#160;&#160;&#160;&#160;&#160;&#160;&#160;&#160;&#160;&#160;&#160;&#160;&#160;&#160;&#160;&#160;&#160;&#160;&#160;&#160;&#160;&#160;&#160;&#160;&#160;&#160;&#160;&#160;</text>
<polygon fill="none" stroke="#99ccff" points="917.9729,-456.8 917.9729,-475.8 1008.9729,-475.8 1008.9729,-456.8 917.9729,-456.8"/>
<text text-anchor="start" x="930.4784" y="-462.9" font-family="Courier,monospace" font-size="11.00" fill="#000000">string(32)</text>
<polygon fill="none" stroke="#99ccff" points="238.9729,-437.8 238.9729,-456.8 917.9729,-456.8 917.9729,-437.8 238.9729,-437.8"/>
<text text-anchor="start" x="241.9729" y="-443.9" font-family="Courier,monospace" font-size="11.00" fill="#000000"> &#160;&#160;&#160;&#160;&#160;&#160;&#160;&#160;&#160;&#160;&#160;&#160;&#160;&#160;&#160;&#160;&#160;&#160;&#160;&#160;&#160;&#160;&#160;&#160;&#160;&#160;&#160;&#160;&#160;&#160;&#160;&#160;&#160;&#160;&#160;&#160;&#160;&#160;&#160;&#160;Application &#160;&#160;&#160;&#160;&#160;&#160;&#160;&#160;&#160;&#160;&#160;&#160;&#160;&#160;&#160;&#160;&#160;&#160;&#160;&#160;&#160;&#160;&#160;&#160;&#160;&#160;&#160;&#160;&#160;&#160;&#160;&#160;&#160;&#160;&#160;&#160;&#160;&#160;</text>
<polygon fill="none" stroke="#99ccff" points="917.9729,-437.8 917.9729,-456.8 1008.9729,-456.8 1008.9729,-437.8 917.9729,-437.8"/>
<text text-anchor="start" x="927.179" y="-443.9" font-family="Courier,monospace" font-size="11.00" fill="#000000">string(255)</text>
<polygon fill="none" stroke="#99ccff" points="238.9729,-418.8 238.9729,-437.8 917.9729,-437.8 917.9729,-418.8 238.9729,-418.8"/>
<text text-anchor="start" x="241.9729" y="-424.9" font-family="Courier,monospace" font-size="11.00" fill="#000000"> &#160;&#160;&#160;&#160;&#160;&#160;&#160;&#160;&#160;&#160;&#160;&#160;&#160;&#160;&#160;&#160;&#160;&#160;&#160;&#160;&#160;&#160;&#160;&#160;&#160;&#160;&#160;&#160;&#160;&#160;&#160;&#160;&#160;&#160;&#160;&#160;&#160;&#160;&#160;&#160;AuthServiceId &#160;&#160;&#160;&#160;&#160;&#160;&#160;&#160;&#160;&#160;&#160;&#160;&#160;&#160;&#160;&#160;&#160;&#160;&#160;&#160;&#160;&#160;&#160;&#160;&#160;&#160;&#160;&#160;&#160;&#160;&#160;&#160;&#160;&#160;&#160;&#160;&#160;&#160;</text>
<polygon fill="none" stroke="#99ccff" points="917.9729,-418.8 917.9729,-437.8 1008.9729,-437.8 1008.9729,-418.8 917.9729,-418.8"/>
<text text-anchor="start" x="920.5801" y="-424.9" font-family="Courier,monospace" font-size="11.00" fill="#000000">reference(18)</text>
<polygon fill="none" stroke="#99ccff" points="238.9729,-399.8 238.9729,-418.8 917.9729,-418.8 917.9729,-399.8 238.9729,-399.8"/>
<text text-anchor="start" x="241.9729" y="-405.9" font-family="Courier,monospace" font-size="11.00" fill="#000000"> &#160;&#160;&#160;&#160;&#160;&#160;&#160;&#160;&#160;&#160;&#160;&#160;&#160;&#160;&#160;&#160;&#160;&#160;&#160;&#160;&#160;&#160;&#160;&#160;&#160;&#160;&#160;&#160;&#160;&#160;&#160;&#160;&#160;&#160;&#160;&#160;&#160;&#160;&#160;&#160;Browser &#160;&#160;&#160;&#160;&#160;&#160;&#160;&#160;&#160;&#160;&#160;&#160;&#160;&#160;&#160;&#160;&#160;&#160;&#160;&#160;&#160;&#160;&#160;&#160;&#160;&#160;&#160;&#160;&#160;&#160;&#160;&#160;&#160;&#160;&#160;&#160;&#160;&#160;</text>
<polygon fill="none" stroke="#99ccff" points="917.9729,-399.8 917.9729,-418.8 1008.9729,-418.8 1008.9729,-399.8 917.9729,-399.8"/>
<text text-anchor="start" x="930.4784" y="-405.9" font-family="Courier,monospace" font-size="11.00" fill="#000000">string(64)</text>
<polygon fill="none" stroke="#99ccff" points="238.9729,-380.8 238.9729,-399.8 917.9729,-399.8 917.9729,-380.8 238.9729,-380.8"/>
<text text-anchor="start" x="241.9729" y="-386.9" font-family="Courier,monospace" font-size="11.00" fill="#000000"> &#160;&#160;&#160;&#160;&#160;&#160;&#160;&#160;&#160;&#160;&#160;&#160;&#160;&#160;&#160;&#160;&#160;&#160;&#160;&#160;&#160;&#160;&#160;&#160;&#160;&#160;&#160;&#160;&#160;&#160;&#160;&#160;&#160;&#160;&#160;&#160;&#160;&#160;&#160;&#160;HttpMethod &#160;&#160;&#160;&#160;&#160;&#160;&#160;&#160;&#160;&#160;&#160;&#160;&#160;&#160;&#160;&#160;&#160;&#160;&#160;&#160;&#160;&#160;&#160;&#160;&#160;&#160;&#160;&#160;&#160;&#160;&#160;&#160;&#160;&#160;&#160;&#160;&#160;&#160;</text>
<polygon fill="none" stroke="#99ccff" points="917.9729,-380.8 917.9729,-399.8 1008.9729,-399.8 1008.9729,-380.8 917.9729,-380.8"/>
<text text-anchor="start" x="920.5801" y="-386.9" font-family="Courier,monospace" font-size="11.00" fill="#000000">picklist(255)</text>
<polygon fill="none" stroke="#99ccff" points="238.9729,-361.8 238.9729,-380.8 917.9729,-380.8 917.9729,-361.8 238.9729,-361.8"/>
<text text-anchor="start" x="241.9729" y="-367.9" font-family="Courier,monospace" font-size="11.00" fill="#000000"> &#160;&#160;&#160;&#160;&#160;&#160;&#160;&#160;&#160;&#160;&#160;&#160;&#160;&#160;&#160;&#160;&#160;&#160;&#160;&#160;&#160;&#160;&#160;&#160;&#160;&#160;&#160;&#160;&#160;&#160;&#160;&#160;&#160;&#160;&#160;&#160;&#160;&#160;&#160;&#160;CountryIso &#160;&#160;&#160;&#160;&#160;&#160;&#160;&#160;&#160;&#160;&#160;&#160;&#160;&#160;&#160;&#160;&#160;&#160;&#160;&#160;&#160;&#160;&#160;&#160;&#160;&#160;&#160;&#160;&#160;&#160;&#160;&#160;&#160;&#160;&#160;&#160;&#160;&#160;</text>
<polygon fill="none" stroke="#99ccff" points="917.9729,-361.8 917.9729,-380.8 1008.9729,-380.8 1008.9729,-361.8 917.9729,-361.8"/>
<text text-anchor="start" x="933.7779" y="-367.9" font-family="Courier,monospace" font-size="11.00" fill="#000000">string(3)</text>
<polygon fill="none" stroke="#99ccff" points="238.9729,-342.8 238.9729,-361.8 917.9729,-361.8 917.9729,-342.8 238.9729,-342.8"/>
<text text-anchor="start" x="241.9729" y="-348.9" font-family="Courier,monospace" font-size="11.00" fill="#000000"> &#160;&#160;&#160;&#160;&#160;&#160;&#160;&#160;&#160;&#160;&#160;&#160;&#160;&#160;&#160;&#160;&#160;&#160;&#160;&#160;&#160;&#160;&#160;&#160;&#160;&#160;&#160;&#160;&#160;&#160;&#160;&#160;&#160;&#160;&#160;&#160;&#160;&#160;&#160;&#160;LoginLatitude &#160;&#160;&#160;&#160;&#160;&#160;&#160;&#160;&#160;&#160;&#160;&#160;&#160;&#160;&#160;&#160;&#160;&#160;&#160;&#160;&#160;&#160;&#160;&#160;&#160;&#160;&#160;&#160;&#160;&#160;&#160;&#160;&#160;&#160;&#160;&#160;&#160;&#160;</text>
<polygon fill="none" stroke="#99ccff" points="917.9729,-342.8 917.9729,-361.8 1008.9729,-361.8 1008.9729,-342.8 917.9729,-342.8"/>
<text text-anchor="start" x="943.6762" y="-348.9" font-family="Courier,monospace" font-size="11.00" fill="#000000">double</text>
<polygon fill="none" stroke="#99ccff" points="238.9729,-323.8 238.9729,-342.8 917.9729,-342.8 917.9729,-323.8 238.9729,-323.8"/>
<text text-anchor="start" x="241.9729" y="-329.9" font-family="Courier,monospace" font-size="11.00" fill="#000000"> &#160;&#160;&#160;&#160;&#160;&#160;&#160;&#160;&#160;&#160;&#160;&#160;&#160;&#160;&#160;&#160;&#160;&#160;&#160;&#160;&#160;&#160;&#160;&#160;&#160;&#160;&#160;&#160;&#160;&#160;&#160;&#160;&#160;&#160;&#160;&#160;&#160;&#160;&#160;&#160;LoginLongitude &#160;&#160;&#160;&#160;&#160;&#160;&#160;&#160;&#160;&#160;&#160;&#160;&#160;&#160;&#160;&#160;&#160;&#160;&#160;&#160;&#160;&#160;&#160;&#160;&#160;&#160;&#160;&#160;&#160;&#160;&#160;&#160;&#160;&#160;&#160;&#160;&#160;&#160;</text>
<polygon fill="none" stroke="#99ccff" points="917.9729,-323.8 917.9729,-342.8 1008.9729,-342.8 1008.9729,-323.8 917.9729,-323.8"/>
<text text-anchor="start" x="943.6762" y="-329.9" font-family="Courier,monospace" font-size="11.00" fill="#000000">double</text>
<polygon fill="none" stroke="#99ccff" points="238.9729,-304.8 238.9729,-323.8 917.9729,-323.8 917.9729,-304.8 238.9729,-304.8"/>
<text text-anchor="start" x="241.9729" y="-310.9" font-family="Courier,monospace" font-size="11.00" fill="#000000"> &#160;&#160;&#160;&#160;&#160;&#160;&#160;&#160;&#160;&#160;&#160;&#160;&#160;&#160;&#160;&#160;&#160;&#160;&#160;&#160;&#160;&#160;&#160;&#160;&#160;&#160;&#160;&#160;&#160;&#160;&#160;&#160;&#160;&#160;&#160;&#160;&#160;&#160;&#160;&#160;Country &#160;&#160;&#160;&#160;&#160;&#160;&#160;&#160;&#160;&#160;&#160;&#160;&#160;&#160;&#160;&#160;&#160;&#160;&#160;&#160;&#160;&#160;&#160;&#160;&#160;&#160;&#160;&#160;&#160;&#160;&#160;&#160;&#160;&#160;&#160;&#160;&#160;&#160;</text>
<polygon fill="none" stroke="#99ccff" points="917.9729,-304.8 917.9729,-323.8 1008.9729,-323.8 1008.9729,-304.8 917.9729,-304.8"/>
<text text-anchor="start" x="927.179" y="-310.9" font-family="Courier,monospace" font-size="11.00" fill="#000000">string(200)</text>
<polygon fill="none" stroke="#99ccff" points="238.9729,-285.8 238.9729,-304.8 917.9729,-304.8 917.9729,-285.8 238.9729,-285.8"/>
<text text-anchor="start" x="241.9729" y="-291.9" font-family="Courier,monospace" font-size="11.00" fill="#000000"> &#160;&#160;&#160;&#160;&#160;&#160;&#160;&#160;&#160;&#160;&#160;&#160;&#160;&#160;&#160;&#160;&#160;&#160;&#160;&#160;&#160;&#160;&#160;&#160;&#160;&#160;&#160;&#160;&#160;&#160;&#160;&#160;&#160;&#160;&#160;&#160;&#160;&#160;&#160;&#160;City &#160;&#160;&#160;&#160;&#160;&#160;&#160;&#160;&#160;&#160;&#160;&#160;&#160;&#160;&#160;&#160;&#160;&#160;&#160;&#160;&#160;&#160;&#160;&#160;&#160;&#160;&#160;&#160;&#160;&#160;&#160;&#160;&#160;&#160;&#160;&#160;&#160;&#160;</text>
<polygon fill="none" stroke="#99ccff" points="917.9729,-285.8 917.9729,-304.8 1008.9729,-304.8 1008.9729,-285.8 917.9729,-285.8"/>
<text text-anchor="start" x="927.179" y="-291.9" font-family="Courier,monospace" font-size="11.00" fill="#000000">string(200)</text>
<polygon fill="none" stroke="#99ccff" points="238.9729,-266.8 238.9729,-285.8 917.9729,-285.8 917.9729,-266.8 238.9729,-266.8"/>
<text text-anchor="start" x="241.9729" y="-272.9" font-family="Courier,monospace" font-size="11.00" fill="#000000"> &#160;&#160;&#160;&#160;&#160;&#160;&#160;&#160;&#160;&#160;&#160;&#160;&#160;&#160;&#160;&#160;&#160;&#160;&#160;&#160;&#160;&#160;&#160;&#160;&#160;&#160;&#160;&#160;&#160;&#160;&#160;&#160;&#160;&#160;&#160;&#160;&#160;&#160;&#160;&#160;PostalCode &#160;&#160;&#160;&#160;&#160;&#160;&#160;&#160;&#160;&#160;&#160;&#160;&#160;&#160;&#160;&#160;&#160;&#160;&#160;&#160;&#160;&#160;&#160;&#160;&#160;&#160;&#160;&#160;&#160;&#160;&#160;&#160;&#160;&#160;&#160;&#160;&#160;&#160;</text>
<polygon fill="none" stroke="#99ccff" points="917.9729,-266.8 917.9729,-285.8 1008.9729,-285.8 1008.9729,-266.8 917.9729,-266.8"/>
<text text-anchor="start" x="930.4784" y="-272.9" font-family="Courier,monospace" font-size="11.00" fill="#000000">string(20)</text>
<polygon fill="none" stroke="#99ccff" points="238.9729,-247.8 238.9729,-266.8 917.9729,-266.8 917.9729,-247.8 238.9729,-247.8"/>
<text text-anchor="start" x="241.9729" y="-253.9" font-family="Courier,monospace" font-size="11.00" fill="#000000"> &#160;&#160;&#160;&#160;&#160;&#160;&#160;&#160;&#160;&#160;&#160;&#160;&#160;&#160;&#160;&#160;&#160;&#160;&#160;&#160;&#160;&#160;&#160;&#160;&#160;&#160;&#160;&#160;&#160;&#160;&#160;&#160;&#160;&#160;&#160;&#160;&#160;&#160;&#160;&#160;Subdivision &#160;&#160;&#160;&#160;&#160;&#160;&#160;&#160;&#160;&#160;&#160;&#160;&#160;&#160;&#160;&#160;&#160;&#160;&#160;&#160;&#160;&#160;&#160;&#160;&#160;&#160;&#160;&#160;&#160;&#160;&#160;&#160;&#160;&#160;&#160;&#160;&#160;&#160;</text>
<polygon fill="none" stroke="#99ccff" points="917.9729,-247.8 917.9729,-266.8 1008.9729,-266.8 1008.9729,-247.8 917.9729,-247.8"/>
<text text-anchor="start" x="927.179" y="-253.9" font-family="Courier,monospace" font-size="11.00" fill="#000000">string(200)</text>
<polygon fill="none" stroke="#99ccff" points="238.9729,-228.8 238.9729,-247.8 917.9729,-247.8 917.9729,-228.8 238.9729,-228.8"/>
<text text-anchor="start" x="241.9729" y="-234.9" font-family="Courier,monospace" font-size="11.00" fill="#000000"> &#160;&#160;&#160;&#160;&#160;&#160;&#160;&#160;&#160;&#160;&#160;&#160;&#160;&#160;&#160;&#160;&#160;&#160;&#160;&#160;&#160;&#160;&#160;&#160;&#160;&#160;&#160;&#160;&#160;&#160;&#160;&#160;&#160;&#160;&#160;&#160;&#160;&#160;&#160;&#160;CipherSuite &#160;&#160;&#160;&#160;&#160;&#160;&#160;&#160;&#160;&#160;&#160;&#160;&#160;&#160;&#160;&#160;&#160;&#160;&#160;&#160;&#160;&#160;&#160;&#160;&#160;&#160;&#160;&#160;&#160;&#160;&#160;&#160;&#160;&#160;&#160;&#160;&#160;&#160;</text>
<polygon fill="none" stroke="#99ccff" points="917.9729,-228.8 917.9729,-247.8 1008.9729,-247.8 1008.9729,-228.8 917.9729,-228.8"/>
<text text-anchor="start" x="920.5801" y="-234.9" font-family="Courier,monospace" font-size="11.00" fill="#000000">picklist(255)</text>
<polygon fill="none" stroke="#99ccff" points="238.9729,-209.8 238.9729,-228.8 917.9729,-228.8 917.9729,-209.8 238.9729,-209.8"/>
<text text-anchor="start" x="241.9729" y="-215.9" font-family="Courier,monospace" font-size="11.00" fill="#000000"> &#160;&#160;&#160;&#160;&#160;&#160;&#160;&#160;&#160;&#160;&#160;&#160;&#160;&#160;&#160;&#160;&#160;&#160;&#160;&#160;&#160;&#160;&#160;&#160;&#160;&#160;&#160;&#160;&#160;&#160;&#160;&#160;&#160;&#160;&#160;&#160;&#160;&#160;&#160;&#160;ClientVersion &#160;&#160;&#160;&#160;&#160;&#160;&#160;&#160;&#160;&#160;&#160;&#160;&#160;&#160;&#160;&#160;&#160;&#160;&#160;&#160;&#160;&#160;&#160;&#160;&#160;&#160;&#160;&#160;&#160;&#160;&#160;&#160;&#160;&#160;&#160;&#160;&#160;&#160;</text>
<polygon fill="none" stroke="#99ccff" points="917.9729,-209.8 917.9729,-228.8 1008.9729,-228.8 1008.9729,-209.8 917.9729,-209.8"/>
<text text-anchor="start" x="930.4784" y="-215.9" font-family="Courier,monospace" font-size="11.00" fill="#000000">string(64)</text>
<polygon fill="none" stroke="#99ccff" points="238.9729,-190.8 238.9729,-209.8 917.9729,-209.8 917.9729,-190.8 238.9729,-190.8"/>
<text text-anchor="start" x="241.9729" y="-196.9" font-family="Courier,monospace" font-size="11.00" fill="#000000"> &#160;&#160;&#160;&#160;&#160;&#160;&#160;&#160;&#160;&#160;&#160;&#160;&#160;&#160;&#160;&#160;&#160;&#160;&#160;&#160;&#160;&#160;&#160;&#160;&#160;&#160;&#160;&#160;&#160;&#160;&#160;&#160;&#160;&#160;&#160;&#160;&#160;&#160;&#160;&#160;LoginGeoId &#160;&#160;&#160;&#160;&#160;&#160;&#160;&#160;&#160;&#160;&#160;&#160;&#160;&#160;&#160;&#160;&#160;&#160;&#160;&#160;&#160;&#160;&#160;&#160;&#160;&#160;&#160;&#160;&#160;&#160;&#160;&#160;&#160;&#160;&#160;&#160;&#160;&#160;</text>
<polygon fill="none" stroke="#99ccff" points="917.9729,-190.8 917.9729,-209.8 1008.9729,-209.8 1008.9729,-190.8 917.9729,-190.8"/>
<text text-anchor="start" x="920.5801" y="-196.9" font-family="Courier,monospace" font-size="11.00" fill="#000000">reference(18)</text>
<polygon fill="none" stroke="#99ccff" points="238.9729,-171.8 238.9729,-190.8 917.9729,-190.8 917.9729,-171.8 238.9729,-171.8"/>
<text text-anchor="start" x="241.9729" y="-177.9" font-family="Courier,monospace" font-size="11.00" fill="#000000"> &#160;&#160;&#160;&#160;&#160;&#160;&#160;&#160;&#160;&#160;&#160;&#160;&#160;&#160;&#160;&#160;&#160;&#160;&#160;&#160;&#160;&#160;&#160;&#160;&#160;&#160;&#160;&#160;&#160;&#160;&#160;&#160;&#160;&#160;&#160;&#160;&#160;&#160;&#160;&#160;LoginHistoryId &#160;&#160;&#160;&#160;&#160;&#160;&#160;&#160;&#160;&#160;&#160;&#160;&#160;&#160;&#160;&#160;&#160;&#160;&#160;&#160;&#160;&#160;&#160;&#160;&#160;&#160;&#160;&#160;&#160;&#160;&#160;&#160;&#160;&#160;&#160;&#160;&#160;&#160;</text>
<polygon fill="none" stroke="#99ccff" points="917.9729,-171.8 917.9729,-190.8 1008.9729,-190.8 1008.9729,-171.8 917.9729,-171.8"/>
<text text-anchor="start" x="920.5801" y="-177.9" font-family="Courier,monospace" font-size="11.00" fill="#000000">reference(18)</text>
<polygon fill="none" stroke="#99ccff" points="238.9729,-152.8 238.9729,-171.8 917.9729,-171.8 917.9729,-152.8 238.9729,-152.8"/>
<text text-anchor="start" x="241.9729" y="-158.9" font-family="Courier,monospace" font-size="11.00" fill="#000000"> &#160;&#160;&#160;&#160;&#160;&#160;&#160;&#160;&#160;&#160;&#160;&#160;&#160;&#160;&#160;&#160;&#160;&#160;&#160;&#160;&#160;&#160;&#160;&#160;&#160;&#160;&#160;&#160;&#160;&#160;&#160;&#160;&#160;&#160;&#160;&#160;&#160;&#160;&#160;&#160;LoginType &#160;&#160;&#160;&#160;&#160;&#160;&#160;&#160;&#160;&#160;&#160;&#160;&#160;&#160;&#160;&#160;&#160;&#160;&#160;&#160;&#160;&#160;&#160;&#160;&#160;&#160;&#160;&#160;&#160;&#160;&#160;&#160;&#160;&#160;&#160;&#160;&#160;&#160;</text>
<polygon fill="none" stroke="#99ccff" points="917.9729,-152.8 917.9729,-171.8 1008.9729,-171.8 1008.9729,-152.8 917.9729,-152.8"/>
<text text-anchor="start" x="920.5801" y="-158.9" font-family="Courier,monospace" font-size="11.00" fill="#000000">picklist(255)</text>
<polygon fill="none" stroke="#99ccff" points="238.9729,-133.8 238.9729,-152.8 917.9729,-152.8 917.9729,-133.8 238.9729,-133.8"/>
<text text-anchor="start" x="241.9729" y="-139.9" font-family="Courier,monospace" font-size="11.00" fill="#000000"> &#160;&#160;&#160;&#160;&#160;&#160;&#160;&#160;&#160;&#160;&#160;&#160;&#160;&#160;&#160;&#160;&#160;&#160;&#160;&#160;&#160;&#160;&#160;&#160;&#160;&#160;&#160;&#160;&#160;&#160;&#160;&#160;&#160;&#160;&#160;&#160;&#160;&#160;&#160;&#160;LoginUrl &#160;&#160;&#160;&#160;&#160;&#160;&#160;&#160;&#160;&#160;&#160;&#160;&#160;&#160;&#160;&#160;&#160;&#160;&#160;&#160;&#160;&#160;&#160;&#160;&#160;&#160;&#160;&#160;&#160;&#160;&#160;&#160;&#160;&#160;&#160;&#160;&#160;&#160;</text>
<polygon fill="none" stroke="#99ccff" points="917.9729,-133.8 917.9729,-152.8 1008.9729,-152.8 1008.9729,-133.8 917.9729,-133.8"/>
<text text-anchor="start" x="923.8795" y="-139.9" font-family="Courier,monospace" font-size="11.00" fill="#000000">string(1000)</text>
<polygon fill="none" stroke="#99ccff" points="238.9729,-114.8 238.9729,-133.8 917.9729,-133.8 917.9729,-114.8 238.9729,-114.8"/>
<text text-anchor="start" x="241.9729" y="-120.9" font-family="Courier,monospace" font-size="11.00" fill="#000000"> &#160;&#160;&#160;&#160;&#160;&#160;&#160;&#160;&#160;&#160;&#160;&#160;&#160;&#160;&#160;&#160;&#160;&#160;&#160;&#160;&#160;&#160;&#160;&#160;&#160;&#160;&#160;&#160;&#160;&#160;&#160;&#160;&#160;&#160;&#160;&#160;&#160;&#160;&#160;&#160;Platform &#160;&#160;&#160;&#160;&#160;&#160;&#160;&#160;&#160;&#160;&#160;&#160;&#160;&#160;&#160;&#160;&#160;&#160;&#160;&#160;&#160;&#160;&#160;&#160;&#160;&#160;&#160;&#160;&#160;&#160;&#160;&#160;&#160;&#160;&#160;&#160;&#160;&#160;</text>
<polygon fill="none" stroke="#99ccff" points="917.9729,-114.8 917.9729,-133.8 1008.9729,-133.8 1008.9729,-114.8 917.9729,-114.8"/>
<text text-anchor="start" x="927.179" y="-120.9" font-family="Courier,monospace" font-size="11.00" fill="#000000">string(255)</text>
<polygon fill="none" stroke="#99ccff" points="238.9729,-95.8 238.9729,-114.8 917.9729,-114.8 917.9729,-95.8 238.9729,-95.8"/>
<text text-anchor="start" x="241.9729" y="-101.9" font-family="Courier,monospace" font-size="11.00" fill="#000000"> &#160;&#160;&#160;&#160;&#160;&#160;&#160;&#160;&#160;&#160;&#160;&#160;&#160;&#160;&#160;&#160;&#160;&#160;&#160;&#160;&#160;&#160;&#160;&#160;&#160;&#160;&#160;&#160;&#160;&#160;&#160;&#160;&#160;&#160;&#160;&#160;&#160;&#160;&#160;&#160;Status &#160;&#160;&#160;&#160;&#160;&#160;&#160;&#160;&#160;&#160;&#160;&#160;&#160;&#160;&#160;&#160;&#160;&#160;&#160;&#160;&#160;&#160;&#160;&#160;&#160;&#160;&#160;&#160;&#160;&#160;&#160;&#160;&#160;&#160;&#160;&#160;&#160;&#160;</text>
<polygon fill="none" stroke="#99ccff" points="917.9729,-95.8 917.9729,-114.8 1008.9729,-114.8 1008.9729,-95.8 917.9729,-95.8"/>
<text text-anchor="start" x="927.179" y="-101.9" font-family="Courier,monospace" font-size="11.00" fill="#000000">string(128)</text>
<polygon fill="none" stroke="#99ccff" points="238.9729,-76.8 238.9729,-95.8 917.9729,-95.8 917.9729,-76.8 238.9729,-76.8"/>
<text text-anchor="start" x="241.9729" y="-82.9" font-family="Courier,monospace" font-size="11.00" fill="#000000"> &#160;&#160;&#160;&#160;&#160;&#160;&#160;&#160;&#160;&#160;&#160;&#160;&#160;&#160;&#160;&#160;&#160;&#160;&#160;&#160;&#160;&#160;&#160;&#160;&#160;&#160;&#160;&#160;&#160;&#160;&#160;&#160;&#160;&#160;&#160;&#160;&#160;&#160;&#160;&#160;TlsProtocol &#160;&#160;&#160;&#160;&#160;&#160;&#160;&#160;&#160;&#160;&#160;&#160;&#160;&#160;&#160;&#160;&#160;&#160;&#160;&#160;&#160;&#160;&#160;&#160;&#160;&#160;&#160;&#160;&#160;&#160;&#160;&#160;&#160;&#160;&#160;&#160;&#160;&#160;</text>
<polygon fill="none" stroke="#99ccff" points="917.9729,-76.8 917.9729,-95.8 1008.9729,-95.8 1008.9729,-76.8 917.9729,-76.8"/>
<text text-anchor="start" x="920.5801" y="-82.9" font-family="Courier,monospace" font-size="11.00" fill="#000000">picklist(255)</text>
<polygon fill="none" stroke="#99ccff" points="238.9729,-57.8 238.9729,-76.8 917.9729,-76.8 917.9729,-57.8 238.9729,-57.8"/>
<text text-anchor="start" x="241.9729" y="-63.9" font-family="Courier,monospace" font-size="11.00" fill="#000000"> &#160;&#160;&#160;&#160;&#160;&#160;&#160;&#160;&#160;&#160;&#160;&#160;&#160;&#160;&#160;&#160;&#160;&#160;&#160;&#160;&#160;&#160;&#160;&#160;&#160;&#160;&#160;&#160;&#160;&#160;&#160;&#160;&#160;&#160;&#160;&#160;&#160;&#160;&#160;&#160;UserType &#160;&#160;&#160;&#160;&#160;&#160;&#160;&#160;&#160;&#160;&#160;&#160;&#160;&#160;&#160;&#160;&#160;&#160;&#160;&#160;&#160;&#160;&#160;&#160;&#160;&#160;&#160;&#160;&#160;&#160;&#160;&#160;&#160;&#160;&#160;&#160;&#160;&#160;</text>
<polygon fill="none" stroke="#99ccff" points="917.9729,-57.8 917.9729,-76.8 1008.9729,-76.8 1008.9729,-57.8 917.9729,-57.8"/>
<text text-anchor="start" x="920.5801" y="-63.9" font-family="Courier,monospace" font-size="11.00" fill="#000000">picklist(255)</text>
<polygon fill="none" stroke="#99ccff" points="238.9729,-38.8 238.9729,-57.8 917.9729,-57.8 917.9729,-38.8 238.9729,-38.8"/>
<text text-anchor="start" x="241.9729" y="-44.9" font-family="Courier,monospace" font-size="11.00" fill="#000000"> &#160;&#160;&#160;&#160;&#160;&#160;&#160;&#160;&#160;&#160;&#160;&#160;&#160;&#160;&#160;&#160;&#160;&#160;&#160;&#160;&#160;&#160;&#160;&#160;&#160;&#160;&#160;&#160;&#160;&#160;&#160;&#160;&#160;&#160;&#160;&#160;&#160;&#160;&#160;&#160;AuthMethodReference &#160;&#160;&#160;&#160;&#160;&#160;&#160;&#160;&#160;&#160;&#160;&#160;&#160;&#160;&#160;&#160;&#160;&#160;&#160;&#160;&#160;&#160;&#160;&#160;&#160;&#160;&#160;&#160;&#160;&#160;&#160;&#160;&#160;&#160;&#160;&#160;&#160;&#160;</text>
<polygon fill="none" stroke="#99ccff" points="917.9729,-38.8 917.9729,-57.8 1008.9729,-57.8 1008.9729,-38.8 917.9729,-38.8"/>
<text text-anchor="start" x="927.179" y="-44.9" font-family="Courier,monospace" font-size="11.00" fill="#000000">string(128)</text>
<polygon fill="none" stroke="#99ccff" points="238.9729,-19.8 238.9729,-38.8 917.9729,-38.8 917.9729,-19.8 238.9729,-19.8"/>
<text text-anchor="start" x="241.9729" y="-25.9" font-family="Courier,monospace" font-size="11.00" fill="#000000"> &#160;&#160;&#160;&#160;&#160;&#160;&#160;&#160;&#160;&#160;&#160;&#160;&#160;&#160;&#160;&#160;&#160;&#160;&#160;&#160;&#160;&#160;&#160;&#160;&#160;&#160;&#160;&#160;&#160;&#160;&#160;&#160;&#160;&#160;&#160;&#160;&#160;&#160;&#160;&#160;LoginSubType &#160;&#160;&#160;&#160;&#160;&#160;&#160;&#160;&#160;&#160;&#160;&#160;&#160;&#160;&#160;&#160;&#160;&#160;&#160;&#160;&#160;&#160;&#160;&#160;&#160;&#160;&#160;&#160;&#160;&#160;&#160;&#160;&#160;&#160;&#160;&#160;&#160;&#160;</text>
<polygon fill="none" stroke="#99ccff" points="917.9729,-19.8 917.9729,-38.8 1008.9729,-38.8 1008.9729,-19.8 917.9729,-19.8"/>
<text text-anchor="start" x="920.5801" y="-25.9" font-family="Courier,monospace" font-size="11.00" fill="#000000">picklist(255)</text>
<polygon fill="none" stroke="#99ccff" points="237.9729,-18.8 237.9729,-780.8 1009.9729,-780.8 1009.9729,-18.8 237.9729,-18.8"/>
</a>
</g>
</g>
<!-- User -->
<g id="node2" class="node">
<title>User</title>
<text text-anchor="middle" x="90.4863" y="-710.5" font-family="Courier,monospace" font-size="11.00" fill="#000000">User</text>
</g>
<!-- LoginEvent&#45;&gt;User -->
<g id="edge1" class="edge">
<title>LoginEvent:w&#45;&gt;User:e</title>
<path fill="none" stroke="#ff99cc" d="M224.3373,-713.8C185.6651,-713.8 143.9759,-713.8 117.5816,-713.8"/>
<polygon fill="#ff99cc" stroke="#ff99cc" points="230.9729,-713.8001 238.9729,-717.4 234.9729,-713.8 238.9729,-713.8 238.9729,-713.8 238.9729,-713.8 234.9729,-713.8 238.9729,-710.2 230.9729,-713.8001 230.9729,-713.8001"/>
<ellipse fill="none" stroke="#ff99cc" cx="227.7729" cy="-713.8001" rx="3.2" ry="3.2"/>
<text text-anchor="middle" x="209.4727" y="-716.5" font-family="Monaco" font-size="9.00" fill="#000000">User</text>
</g>
<!-- TransactionSecurityPolicy -->
<g id="node3" class="node">
<title>TransactionSecurityPolicy</title>
<text text-anchor="middle" x="90.4863" y="-634.5" font-family="Courier,monospace" font-size="11.00" fill="#000000">TransactionSecurityPolicy</text>
</g>
<!-- LoginEvent&#45;&gt;TransactionSecurityPolicy -->
<g id="edge2" class="edge">
<title>LoginEvent:w&#45;&gt;TransactionSecurityPolicy:e</title>
<path fill="none" stroke="#ff99cc" d="M224.2922,-637.8C210.0255,-637.8 195.3491,-637.8 181.1825,-637.8"/>
<polygon fill="#ff99cc" stroke="#ff99cc" points="230.9729,-637.8001 238.9729,-641.4 234.9729,-637.8 238.9729,-637.8 238.9729,-637.8 238.9729,-637.8 234.9729,-637.8 238.9729,-634.2 230.9729,-637.8001 230.9729,-637.8001"/>
<ellipse fill="none" stroke="#ff99cc" cx="227.7729" cy="-637.8001" rx="3.2" ry="3.2"/>
<text text-anchor="middle" x="209.4727" y="-640.5" font-family="Monaco" font-size="9.00" fill="#000000">Policy</text>
</g>
</g>
</svg>
